<svg xmlns="http://www.w3.org/2000/svg" xmlns:xlink="http://www.w3.org/1999/xlink" width="111.614" height="92.14" viewBox="0 0 111.614 92.14">
  <defs>
    <clipPath id="clip-path">
      <rect id="Rectangle_2932" data-name="Rectangle 2932" width="111.614" height="92.14" transform="translate(0 0)" fill="none"/>
    </clipPath>
  </defs>
  <g id="Groupe_28225" data-name="Groupe 28225" transform="translate(0 0)">
    <g id="Groupe_28224" data-name="Groupe 28224" clip-path="url(#clip-path)">
      <path id="Tracé_17539" data-name="Tracé 17539" d="M42.428,31.576c.154-.223.3-.3.784-.2a17.531,17.531,0,0,0,3.1.365c.327.007.357.042.487.316a16.941,16.941,0,0,0,4.129,5.368,3.83,3.83,0,0,0,2.6,1.066,2.314,2.314,0,0,0,1.758-.715,2.168,2.168,0,0,0,.465-1.727,5.082,5.082,0,0,0-.523-1.55l-.076-.163c-.253-.549-.529-1.091-.805-1.632a20.392,20.392,0,0,1-1.427-3.228,5.876,5.876,0,0,0-3.687-4.238c-1.521-.54-3.083-1.034-4.593-1.511-.795-.252-1.59-.5-2.382-.762a3.552,3.552,0,0,0-4.043,1.031,13.272,13.272,0,0,1,3.863-7.408,24.961,24.961,0,0,0,5.99-7.866A12.066,12.066,0,0,0,49.51,2.885,2.247,2.247,0,0,0,48.144.706a2.215,2.215,0,0,0-2.532.741l-.695.771c-.6.674-1.208,1.349-1.844,1.992-1.609,1.628-3.231,3.244-4.909,4.914l-.783.779a24.6,24.6,0,0,0,.519-6.39A4.485,4.485,0,0,0,36.721.6,1.69,1.69,0,0,0,35.3.02a1.669,1.669,0,0,0-1.212.938,11.939,11.939,0,0,0-.646,1.375Q30.162,10.826,26.9,19.327q-.268.7-.527,1.4c.056-1.008.1-2.036.095-3.056a20.6,20.6,0,0,0-.427-3.763,3.766,3.766,0,0,0-2-2.779,2.056,2.056,0,0,0-1.906-.091,2.013,2.013,0,0,0-.985,1.592c-.062.46-.09.923-.118,1.387-.025.408-.049.817-.1,1.223-.163,1.315-.341,2.629-.519,3.942q-.176,1.293-.346,2.589l-.09.649a18.382,18.382,0,0,0-.22,2.133c-.051,2.039-.075,4.078-.1,6.118l-.035,2.744a7.032,7.032,0,0,1-1.18,3.793C15,42.565,11.55,48.066,8.585,52.8A35.232,35.232,0,0,0,3.6,63.828C2.505,68.8,1.367,74.075.023,80.429a1.7,1.7,0,0,0,.418,1.347A14.881,14.881,0,0,0,5.2,85.161a21.33,21.33,0,0,0,9.2,1.973,28.2,28.2,0,0,0,3.144-.181c1.425-.159,1.642-.38,1.787-1.816l.175-1.786c.189-1.966.384-4,.689-5.971a56.347,56.347,0,0,1,3.643-12.832,3.21,3.21,0,0,1,2.526-2.112,25.74,25.74,0,0,1,3.813-.316,9.651,9.651,0,0,0,6.022-2.109,10.151,10.151,0,0,1,13.069.006,23.8,23.8,0,0,0,2.928,2.023,3.776,3.776,0,0,0,2.164.37,1.8,1.8,0,0,0,1.278-1.393,6.1,6.1,0,0,0-.755-3.819,12.925,12.925,0,0,0-7.028-6.345A23.857,23.857,0,0,0,44.3,49.96c-.576-.114-1.152-.227-1.721-.362-2.97-.7-4.675-2.386-5.211-5.141a8.476,8.476,0,0,1,.4-4.312,33.33,33.33,0,0,1,4.654-8.569M23,13.942c.029-.316.061-.626.1-.934a3.285,3.285,0,0,1-.1.934m-.464,5.416a9.226,9.226,0,0,0,.16-1.374c.027-.877.071-1.191.756-1.411a1.837,1.837,0,0,0,.961-1.121,11.892,11.892,0,0,1,.123,2.218c-.022,1.07-.088,2.138-.153,3.207-.073,1.2-.149,2.451-.161,3.685A8.353,8.353,0,0,1,23.2,28.528c-.515.959-1.012,1.929-1.506,2.9l-.006-.849c-.018-2.236-.037-4.547.052-6.81a16.219,16.219,0,0,1,.482-2.917c.113-.5.226-.995.317-1.493M35.588,40.631a9.7,9.7,0,0,1-.963,2.541,5.582,5.582,0,0,1-1.211,1.213c-.262.217-.525.434-.765.665a2.338,2.338,0,0,0-.393.545c-.036.062-.072.124-.11.184l-.484.734.875.1a2.05,2.05,0,0,1,.21.042,1.158,1.158,0,0,0,.951-.069c.629-.438,1.238-.919,1.826-1.385.809,3.528,3.366,5.765,7.435,6.487a22.146,22.146,0,0,1,4.573,1.164,10.709,10.709,0,0,1,5.493,5.078,2.579,2.579,0,0,0-3.3-.084c-.28-.135-.556-.275-.83-.415a17.052,17.052,0,0,0-2.573-1.131A11.523,11.523,0,0,0,35.4,58.184a9.057,9.057,0,0,1-6.114,2,16.741,16.741,0,0,0-8.294,2A9.121,9.121,0,0,0,16.747,66.6l-.056.122a2.045,2.045,0,0,0-.228.737,1.8,1.8,0,0,0,.116.673c.019.057.038.116.052.173l.187.759.642-.446a1.5,1.5,0,0,1,.164-.094,1.194,1.194,0,0,0,.631-.6A7.528,7.528,0,0,1,22.012,63.8c-.1.273-.2.545-.3.819-.542,1.48-1.1,3.011-1.587,4.549a61.908,61.908,0,0,0-2.691,14.949l-.025.531c-.006.14-.012.281-.021.383-.083.007-.194.013-.3.017-.167.009-.37.02-.614.041A18.851,18.851,0,0,1,4,82.179,15.136,15.136,0,0,1,2.144,80.69a.562.562,0,0,1-.119-.294C3.2,74.877,4.353,69.471,5.574,64.02A33.912,33.912,0,0,1,10.42,53.567c3.052-4.868,5.835-9.259,8.51-13.423a100.1,100.1,0,0,0,10.81-22.9c.719-2.164,1.55-4.338,2.353-6.441.443-1.158.885-2.316,1.312-3.479.061-.164.061-.164.407-.219a5.284,5.284,0,0,0,2-.856c.045-.029.088-.059.129-.091-.009.078-.02.154-.034.228-.456,2.423-.9,4.649-1.369,6.8a5.254,5.254,0,0,1-.5,1.195l-.461.907a116.226,116.226,0,0,0-6.272,13.8,14.838,14.838,0,0,1-3.766,5.426,1.616,1.616,0,0,1-.147.123,1.285,1.285,0,0,0-.585.872,1.088,1.088,0,0,0,1.032,1.074,1.381,1.381,0,0,0,.975-.573l.118-.125A17.36,17.36,0,0,0,29.4,29.153a100.757,100.757,0,0,1,6.85-14.627,16.821,16.821,0,0,1,3.824-4.563c1.05-.926,2.045-1.935,3.007-2.912l.551-.557a1.508,1.508,0,0,1,.215-.194.4.4,0,0,1,.144.048,2.97,2.97,0,0,0,3.07-.461c-.179.531-.369,1.067-.588,1.573a19.507,19.507,0,0,1-4.98,6.883,16.79,16.79,0,0,0-5.518,10.429,7.707,7.707,0,0,1-2.441,4.689c-1.36,1.28-2.715,2.564-4.045,3.874a1.7,1.7,0,0,0-.39.777c-.022.078-.044.156-.072.228l-.35.886.939-.158a2.231,2.231,0,0,1,.239-.022,1.488,1.488,0,0,0,.881-.251,47.841,47.841,0,0,0,7.039-7.257c.446-.531.9-1.056,1.352-1.58l.582-.675a1.409,1.409,0,0,1,1.638-.528l1.987.618c1.643.508,3.288,1.017,4.919,1.562a3.8,3.8,0,0,1,2.75,3.1,7.145,7.145,0,0,0,.569,1.707c.366.779.557,1.254.22,1.95a2.675,2.675,0,0,0,.172,1.945l.033.1a15.214,15.214,0,0,1-3.466-4.584c-.583-1.22-.888-1.333-2.188-1.367a15.626,15.626,0,0,1-2.694-.328,2.422,2.422,0,0,0-2.7.832,32.514,32.514,0,0,0-5.293,10.07Zm.036-37.454a6.631,6.631,0,0,1-1.038,1.686.648.648,0,0,1-.2.139L35.59,2.344a.72.72,0,0,1,.034.833m11.815-.446-.407.439a14.658,14.658,0,0,1-1.31,1.315.8.8,0,0,1-.406.191l.072-.079c.63-.687,1.224-1.336,1.85-1.948a1.114,1.114,0,0,1,.271-.034.235.235,0,0,1-.07.116" fill="#fff"/>
      <path id="Tracé_17540" data-name="Tracé 17540" d="M111.551,80.187c-.2-.853-.384-1.711-.564-2.57-.162-.774-.324-1.548-.5-2.319-.241-1.038-.47-2.08-.7-3.122-.568-2.587-1.154-5.261-1.945-7.837a57.055,57.055,0,0,0-7.367-15.649c-2.021-2.97-3.942-6.088-5.8-9.1q-1.1-1.791-2.215-3.578a1.7,1.7,0,0,1-.273-.748L92.1,33.7c-.117-2.24-.239-4.555-.256-6.828l0-.512a20.236,20.236,0,0,0-.648-6.041,8.531,8.531,0,0,1-.276-1.747c-.094-1.086-.176-2.173-.259-3.259q-.092-1.193-.186-2.384a1.97,1.97,0,0,0-1.11-1.908,2.063,2.063,0,0,0-2.421.549,7.265,7.265,0,0,0-1.421,2.46,19.871,19.871,0,0,0-.34,6.626q-.4-1.109-.8-2.216c-1.21-3.343-2.461-6.8-3.742-10.181-.734-1.937-1.59-3.855-2.418-5.71L77.6,1.163A1.743,1.743,0,0,0,76.25.009a1.747,1.747,0,0,0-1.582.84,3.648,3.648,0,0,0-.794,1.758,24.6,24.6,0,0,0-.1,4.055c.077,1.056.239,2.086.4,3.085-.24-.218-.484-.445-.72-.677Q70.662,6.322,67.9,3.543c-.48-.483-.937-.99-1.394-1.5L65.9,1.372A2.22,2.22,0,0,0,63.5.68a2.189,2.189,0,0,0-1.395,1.881,4.216,4.216,0,0,0-.05.832,13.375,13.375,0,0,0,1.48,5.352,25.958,25.958,0,0,0,6.147,8.015,12.975,12.975,0,0,1,3.685,7.232,3.482,3.482,0,0,0-3.86-1.083l-1.377.418c-1.67.506-3.4,1.029-5.079,1.607-1.612.554-3.535,1.485-4.107,3.794A21.632,21.632,0,0,1,56.4,34.386a4.749,4.749,0,0,0-.5,1.118,2.4,2.4,0,0,0,.4,2.259,2.207,2.207,0,0,0,2.033.674,4.664,4.664,0,0,0,2.278-1.009,15.9,15.9,0,0,0,4.195-5.422c.11-.232.132-.259.449-.266a15.121,15.121,0,0,0,3.045-.348c.565-.129.748-.011.965.327.245.383.5.76.752,1.137.339.5.678,1.008,1,1.524a22.16,22.16,0,0,1,3.2,7.367,6.4,6.4,0,0,1-4.592,7.679,13,13,0,0,1-2.113.429,13.4,13.4,0,0,0-7.63,3.342c-1.971,1.83-4.065,4.072-3.951,7.532a1.606,1.606,0,0,0,1.619,1.776,3.572,3.572,0,0,0,1.8-.416c.89-.528,1.731-1.145,2.544-1.742l.3-.223a11.806,11.806,0,0,1,4.444-2.209,9.87,9.87,0,0,1,8.631,2,9.521,9.521,0,0,0,6.454,2.2,24.632,24.632,0,0,1,2.481.1,4.218,4.218,0,0,1,3.88,3.04,64,64,0,0,1,3.974,16.975c.057.638.1,1.278.14,1.918l.07,1.043c.094,1.3.369,1.6,1.639,1.747a27.763,27.763,0,0,0,3.275.2,22.581,22.581,0,0,0,4.63-.465,17.78,17.78,0,0,0,9.24-4.764,1.673,1.673,0,0,0,.5-1.725M89.514,21.733l.081.53a22.388,22.388,0,0,1,.3,2.7c.054,1.946.063,3.93.072,5.849l0,.8c-.107-.2-.215-.4-.32-.6l-.065-.122c-2.257-4.314-2.257-4.314-2.426-9.934-.049-1.609.009-3.258.066-4.851l.012-.332a2.409,2.409,0,0,0,1.538,1.151l.047.458c.068.675.135,1.339.233,2,.061.408.147.812.234,1.216.081.376.163.752.219,1.132m5.348,63.306-.416,0a.289.289,0,0,1-.212-.017h0a.683.683,0,0,1-.05-.284,62.6,62.6,0,0,0-1.981-13,52.975,52.975,0,0,0-2.664-7.952,7.561,7.561,0,0,1,3.551,3.582,1.743,1.743,0,0,1,.08.227,1.914,1.914,0,0,0,.283.607,1.271,1.271,0,0,0,.606.4c.048.019.1.036.141.058l.528.259.211-.549c.015-.038.038-.08.06-.122a.919.919,0,0,0,.119-.828l-.209-.475A9.733,9.733,0,0,0,93.888,65a11.032,11.032,0,0,0-6.955-4.2,41.6,41.6,0,0,0-5.6-.634,6.725,6.725,0,0,1-4.216-1.356,12.357,12.357,0,0,0-15.191-.928,2.634,2.634,0,0,0-3.334.022,11.693,11.693,0,0,1,9.1-6.122,17.177,17.177,0,0,0,3.476-.849,7.536,7.536,0,0,0,4.894-5.775c.387.356.766.7,1.151,1.045a1.584,1.584,0,0,0,.763.412c.545.1,1.161.205,1.422-.246a.926.926,0,0,0,.12-.759,1.169,1.169,0,0,0-.7-.664l-.134-.067a4.812,4.812,0,0,1-2.49-3.3A26.307,26.307,0,0,0,72.468,33c-.548-.883-1.125-1.745-1.717-2.565a2.42,2.42,0,0,0-2.839-.968,11.473,11.473,0,0,1-2.663.3,2.075,2.075,0,0,0-2.192,1.341,14.273,14.273,0,0,1-3.371,4.53,2.868,2.868,0,0,0-.151-2.725,1.177,1.177,0,0,1,.067-.262c.136-.4.283-.789.43-1.18.237-.632.473-1.264.669-1.907a2.939,2.939,0,0,1,1.693-2.165c2.354-.85,4.892-1.688,8.229-2.715.436-.134.821.076,1.417.773.415.487.827.979,1.239,1.47,1.022,1.219,2.078,2.477,3.187,3.662,1.219,1.3,2.552,2.525,3.841,3.708l.531.488a1.306,1.306,0,0,0,.937.254h.009a1.928,1.928,0,0,1,.231.008l.9.106-.333-.838c-.026-.068-.047-.141-.068-.214a1.66,1.66,0,0,0-.367-.737c-.856-.878-1.72-1.749-2.583-2.62-1.042-1.05-2.084-2.1-3.113-3.165a2.292,2.292,0,0,1-.384-.852c-.229-.793-.443-1.591-.657-2.389-.444-1.654-.9-3.366-1.5-5.011a10.021,10.021,0,0,0-2.227-3.263l-.746-.782a30.2,30.2,0,0,1-4.952-6.161,23.968,23.968,0,0,1-1.25-2.863L64.6,5.912a3.684,3.684,0,0,0,.881.428,4.792,4.792,0,0,0,1.738.1c.176-.012.356-.023.539-.029q.72.682,1.472,1.385c1.3,1.216,2.639,2.473,3.931,3.776a22.329,22.329,0,0,1,3.8,5.951A110.093,110.093,0,0,1,82.523,29.98a15.833,15.833,0,0,0,4.427,6.169,1.238,1.238,0,0,0,.89.255,2.176,2.176,0,0,1,.218.008l.771.1-.177-.756a1.572,1.572,0,0,1-.026-.179,1.157,1.157,0,0,0-.313-.786c-2.566-2.32-3.907-5.34-5.06-8.234-1.58-3.967-3.471-7.764-5.113-10.955A23.438,23.438,0,0,1,75.963,8.6c-.132-.787-.215-1.6-.292-2.4a2.723,2.723,0,0,0,2.425.918c.016.042.037.1.059.16.416,1.117.846,2.229,1.276,3.341.914,2.365,1.859,4.808,2.639,7.252,2.68,8.389,6.9,16.82,13.279,26.532,2.026,3.086,3.957,6.182,6.089,9.619a37.638,37.638,0,0,1,2.991,6.6c.289.765.578,1.529.883,2.287a54.544,54.544,0,0,1,2.522,9.315c.185.891.371,1.782.569,2.67.15.677.292,1.356.433,2.036.22,1.053.44,2.106.693,3.15a.7.7,0,0,1-.289.846,16.644,16.644,0,0,1-9.412,4.055,29.177,29.177,0,0,1-3.55.08c-.473-.009-.946-.018-1.416-.018M59.45,59.681a5.561,5.561,0,0,1-.869.6,5.516,5.516,0,0,1,.869-.6M64.326,2.63a5.719,5.719,0,0,1,.81.8l.235.261c.286.31.567.625.848.939a.279.279,0,0,1-.1-.029A15.8,15.8,0,0,1,64.164,2.66l.008-.038a.543.543,0,0,1,.154.008M76,2.346,77.2,5.012a2.584,2.584,0,0,1-1.119-1.457c-.246-.587-.3-.895-.086-1.209" fill="#fff"/>
      <path id="Tracé_17541" data-name="Tracé 17541" d="M67.3,77.254c-1.4-3.763-5.937-5.8-9.983.454-1.56-2.791-5.106-4.514-7.588-2.544a6.332,6.332,0,0,0-2.326,6.1c1.023,4.4,6.786,8.718,10.357,10.757a.789.789,0,0,0,.759.034c3.932-2.732,11.141-8.455,8.781-14.8" fill="#fff"/>
    </g>
  </g>
</svg>
