<svg id="Groupe_28221" data-name="Groupe 28221" xmlns="http://www.w3.org/2000/svg" xmlns:xlink="http://www.w3.org/1999/xlink" width="100.301" height="100.598" viewBox="0 0 100.301 100.598">
  <defs>
    <clipPath id="clip-path">
      <rect id="Rectangle_2930" data-name="Rectangle 2930" width="100.301" height="100.598" fill="none"/>
    </clipPath>
  </defs>
  <g id="Groupe_28220" data-name="Groupe 28220" clip-path="url(#clip-path)">
    <path id="Tracé_17256" data-name="Tracé 17256" d="M93.828,452.937l-.751.6-.007.006-.008.006-1.383,1.105a.152.152,0,0,1-.21.168l-.21.168a.152.152,0,1,0,.19.238l.21-.168a.152.152,0,0,1,.21-.168l1.383-1.105.007-.006.008-.006.752-.6a.152.152,0,0,0-.19-.238" transform="translate(-75.923 -377.03)" fill="#fff"/>
    <path id="Tracé_17257" data-name="Tracé 17257" d="M308.4,37.184a.152.152,0,0,0,.152-.152V36.07s0-.007,0-.01,0-.006,0-.01v-1.77a.152.152,0,0,1,0-.269v-.27a.152.152,0,0,0-.3,0v.27a.152.152,0,0,1,0,.269v1.77s0,.007,0,.01,0,.006,0,.01v.962a.152.152,0,0,0,.152.152" transform="translate(-256.608 -27.963)" fill="#fff"/>
    <path id="Tracé_17258" data-name="Tracé 17258" d="M73.822,431.821l.228-.143a.152.152,0,0,1,.228-.143l1.5-.939.008-.005.009,0,.816-.51a.152.152,0,1,0-.161-.258l-.816.51-.008.005-.009,0-1.5.939a.152.152,0,0,1-.229.143l-.228.143a.152.152,0,1,0,.161.258" transform="translate(-61.261 -357.792)" fill="#fff"/>
    <path id="Tracé_17259" data-name="Tracé 17259" d="M148.641,487.336l.239-.3c-.08-.063-.157-.128-.237-.191l-.242.308a.152.152,0,0,1-.166.212l-.166.212a.152.152,0,1,0,.239.188l.166-.212a.152.152,0,0,0,.019-.156.151.151,0,0,0,.147-.056" transform="translate(-123.237 -405.282)" fill="#fff"/>
    <path id="Tracé_17260" data-name="Tracé 17260" d="M308.248,56.331v.348l.3.012v-.36a.152.152,0,0,1,0-.269v-.269a.152.152,0,1,0-.3,0v.269a.152.152,0,0,1,0,.269" transform="translate(-256.608 -46.319)" fill="#fff"/>
    <path id="Tracé_17261" data-name="Tracé 17261" d="M59.118,406.683a.15.15,0,0,0,.065-.015l.243-.116a.152.152,0,0,1,.243-.116l1.6-.76.008,0,.009,0,.869-.413a.152.152,0,0,0-.131-.275l-.869.413-.008,0-.009,0-1.6.76a.152.152,0,0,1-.243.116l-.243.116a.152.152,0,0,0,.065.29" transform="translate(-49.087 -337.123)" fill="#fff"/>
    <path id="Tracé_17262" data-name="Tracé 17262" d="M127.731,469.028l.287-.29c-.072-.072-.144-.143-.215-.215l-.288.29a.152.152,0,0,1-.19.191l-.19.191a.152.152,0,1,0,.216.214l.19-.191a.152.152,0,0,1,.189-.191" transform="translate(-105.801 -390.032)" fill="#fff"/>
    <path id="Tracé_17263" data-name="Tracé 17263" d="M109.092,448.511l.331-.265c-.063-.079-.127-.158-.19-.238l-.331.265a.152.152,0,0,1-.21.168l-.21.168a.152.152,0,1,0,.19.238l.21-.168a.152.152,0,0,1,.21-.168" transform="translate(-90.26 -372.955)" fill="#fff"/>
    <path id="Tracé_17264" data-name="Tracé 17264" d="M20.522,229.381l.261.066a.152.152,0,0,0,.151-.046.152.152,0,0,0,.111.112l1.716.434.009,0,.009,0,.933.236a.145.145,0,0,0,.038,0,.152.152,0,0,0,.037-.3l-.933-.236-.009,0-.009,0-1.716-.434a.151.151,0,0,0-.151.046.152.152,0,0,0-.111-.112l-.261-.066a.152.152,0,0,0-.075.295" transform="translate(-16.988 -190.704)" fill="#fff"/>
    <path id="Tracé_17265" data-name="Tracé 17265" d="M14.215,261.857l.267.036a.152.152,0,0,0,.144-.063.152.152,0,0,0,.123.1l1.755.234h.009l.01,0,.954.127h.02a.152.152,0,0,0,.02-.3l-.954-.127h-.009l-.01,0-1.755-.234a.149.149,0,0,0-.144.063.152.152,0,0,0-.123-.1l-.267-.036a.152.152,0,1,0-.04.3" transform="translate(-11.724 -217.736)" fill="#fff"/>
    <path id="Tracé_17266" data-name="Tracé 17266" d="M11.686,294.846l.269,0h0a.152.152,0,0,0,.133-.079.152.152,0,0,0,.133.084l1.77.031h.019l.962.017h0a.152.152,0,0,0,0-.3l-.962-.017H14l-1.77-.031h0a.152.152,0,0,0-.133.079.152.152,0,0,0-.133-.084l-.269,0h0a.152.152,0,0,0,0,.3" transform="translate(-9.604 -245.198)" fill="#fff"/>
    <path id="Tracé_17267" data-name="Tracé 17267" d="M51.134,205.68l.252.1a.152.152,0,0,1,.252.1l1.655.629.009,0,.009,0,.9.342a.152.152,0,1,0,.108-.284l-.9-.342-.009,0-.009,0-1.655-.629a.152.152,0,0,1-.252-.1l-.252-.1a.152.152,0,1,0-.108.284" transform="translate(-42.486 -170.978)" fill="#fff"/>
    <path id="Tracé_17268" data-name="Tracé 17268" d="M6.174,294.75l.52.009h0a.152.152,0,0,0,0-.3l-.52-.009h0a.152.152,0,0,0,0,.3" transform="translate(-5.016 -245.118)" fill="#fff"/>
    <path id="Tracé_17269" data-name="Tracé 17269" d="M21.2,356.147l-.94.2-.01,0-.009,0-1.73.375a.152.152,0,0,0-.114.108.151.151,0,0,0-.149-.051l-.263.057a.152.152,0,1,0,.064.3l.263-.057a.152.152,0,0,0,.114-.108.154.154,0,0,0,.149.051l1.73-.374.01,0,.009,0,.94-.2a.152.152,0,0,0-.064-.3" transform="translate(-14.87 -296.479)" fill="#fff"/>
    <path id="Tracé_17270" data-name="Tracé 17270" d="M8.137,327.976a.151.151,0,0,0-.166-.136l-.517.051a.152.152,0,0,0,.015.3h.015L8,328.142a.152.152,0,0,0,.136-.166" transform="translate(-6.091 -272.917)" fill="#fff"/>
    <path id="Tracé_17271" data-name="Tracé 17271" d="M47.675,380.107a.153.153,0,0,0,.049-.008l.255-.087a.152.152,0,0,1,.255-.087l1.675-.571.009,0,.009,0,.911-.31a.152.152,0,0,0-.1-.288l-.911.31-.009,0-.009,0-1.675.571a.152.152,0,0,1-.255.087l-.255.087a.152.152,0,0,0,.049.3" transform="translate(-39.562 -315.292)" fill="#fff"/>
    <path id="Tracé_17272" data-name="Tracé 17272" d="M334.341,4.027h.018a.152.152,0,0,0,.151-.134l.015-.124a.152.152,0,0,0-.133-.169.151.151,0,0,0-.169.133l-.015.124a.152.152,0,0,0,.133.169" transform="translate(-278.218 -2.997)" fill="#fff"/>
    <path id="Tracé_17273" data-name="Tracé 17273" d="M366.175,16.345a.143.143,0,0,0,.035,0,.152.152,0,0,0,.148-.117l.12-.505a.152.152,0,0,0-.3-.07l-.12.505a.152.152,0,0,0,.113.183" transform="translate(-304.733 -12.936)" fill="#fff"/>
    <path id="Tracé_17274" data-name="Tracé 17274" d="M381.136,72.722l.039-.107a.152.152,0,0,1,.092-.253l.092-.253a.152.152,0,1,0-.286-.1l-.092.253a.152.152,0,0,1-.092.253l-.037.1c.1.035.189.073.284.109" transform="translate(-317.049 -59.859)" fill="#fff"/>
    <path id="Tracé_17275" data-name="Tracé 17275" d="M368.112,10.1a.142.142,0,0,0,.035,0,.152.152,0,0,0,.148-.117l.029-.121a.152.152,0,0,0-.3-.07L368,9.915a.152.152,0,0,0,.113.183" transform="translate(-306.346 -8.056)" fill="#fff"/>
    <path id="Tracé_17276" data-name="Tracé 17276" d="M361.079,24.4a.143.143,0,0,0,.035,0,.152.152,0,0,0,.148-.117l.222-.936,0-.009,0-.01.409-1.722a.152.152,0,0,0-.048-.15.152.152,0,0,0,.11-.112l.062-.262a.152.152,0,0,0-.3-.07l-.062.262a.153.153,0,0,0,.048.15.152.152,0,0,0-.11.112l-.409,1.722,0,.009,0,.01-.222.936a.152.152,0,0,0,.113.183" transform="translate(-300.491 -17.4)" fill="#fff"/>
    <path id="Tracé_17277" data-name="Tracé 17277" d="M398.1,26.058a.152.152,0,0,0,.195-.091l.177-.488a.152.152,0,1,0-.286-.1l-.177.488a.152.152,0,0,0,.091.195" transform="translate(-331.324 -21.04)" fill="#fff"/>
    <path id="Tracé_17278" data-name="Tracé 17278" d="M355.983,45.858a.143.143,0,0,0,.035,0,.152.152,0,0,0,.148-.117l.222-.936,0-.009,0-.009.409-1.722a.152.152,0,0,1,.062-.262l.062-.262a.152.152,0,0,0-.3-.07l-.062.262a.152.152,0,0,1-.062.262l-.409,1.722,0,.01,0,.009-.222.936a.152.152,0,0,0,.113.183" transform="translate(-296.249 -35.262)" fill="#fff"/>
    <path id="Tracé_17279" data-name="Tracé 17279" d="M390.569,33.842a.152.152,0,0,0,.195-.091l.328-.9,0-.008,0-.01.6-1.664a.152.152,0,0,1,.092-.253l.092-.253a.152.152,0,1,0-.286-.1l-.092.253a.152.152,0,0,1-.092.253l-.6,1.664,0,.008,0,.01-.329.9a.152.152,0,0,0,.091.195" transform="translate(-325.055 -25.353)" fill="#fff"/>
    <path id="Tracé_17280" data-name="Tracé 17280" d="M383.039,54.568a.152.152,0,0,0,.195-.091l.329-.9,0-.009,0-.009.6-1.664a.152.152,0,0,1,.092-.253l.092-.253a.152.152,0,1,0-.286-.1l-.092.253a.152.152,0,0,1-.092.253l-.6,1.664,0,.009,0,.009-.329.9a.152.152,0,0,0,.091.195" transform="translate(-318.786 -42.606)" fill="#fff"/>
    <path id="Tracé_17281" data-name="Tracé 17281" d="M330.76,18.629h.018a.152.152,0,0,0,.151-.134l.113-.955a.09.09,0,0,0,0-.01v-.009l.208-1.758a.152.152,0,0,0-.065-.143.152.152,0,0,0,.1-.124l.032-.268a.152.152,0,0,0-.133-.169.151.151,0,0,0-.169.133l-.032.268a.152.152,0,0,0,.065.143.152.152,0,0,0-.1.124l-.208,1.758s0,.007,0,.01V17.5l-.113.955a.152.152,0,0,0,.133.169" transform="translate(-275.237 -12.536)" fill="#fff"/>
    <path id="Tracé_17282" data-name="Tracé 17282" d="M308.4.428a.152.152,0,0,0,.152-.152V.151a.152.152,0,1,0-.3,0V.276a.152.152,0,0,0,.152.152" transform="translate(-256.608 0.001)" fill="#fff"/>
    <path id="Tracé_17283" data-name="Tracé 17283" d="M327.329,59.522l-.009.079c.1.012.2.022.3.035l.009-.078a.152.152,0,0,1,.032-.268l.032-.267a.152.152,0,0,0-.3-.036l-.032.267a.152.152,0,0,1-.032.268" transform="translate(-272.485 -48.993)" fill="#fff"/>
    <path id="Tracé_17284" data-name="Tracé 17284" d="M328.167,40.526h.018a.152.152,0,0,0,.151-.134l.113-.955s0-.007,0-.01v-.009l.208-1.758a.152.152,0,0,1,.032-.268l.032-.268a.152.152,0,0,0-.133-.169.15.15,0,0,0-.169.133l-.032.268a.152.152,0,0,1-.032.268l-.208,1.758s0,.007,0,.01V39.4l-.113.955a.152.152,0,0,0,.133.169" transform="translate(-273.078 -30.764)" fill="#fff"/>
    <path id="Tracé_17285" data-name="Tracé 17285" d="M354.762,64.611l.021-.089a.152.152,0,0,1,.062-.262l.062-.262a.152.152,0,0,0-.3-.07l-.062.262a.152.152,0,0,1-.062.262l-.02.087.3.073" transform="translate(-295.084 -53.121)" fill="#fff"/>
    <path id="Tracé_17286" data-name="Tracé 17286" d="M308.4,6.85a.152.152,0,0,0,.152-.152v-.52a.152.152,0,0,0-.3,0V6.7a.152.152,0,0,0,.152.152" transform="translate(-256.608 -5.016)" fill="#fff"/>
    <path id="Tracé_17287" data-name="Tracé 17287" d="M308.4,15.133a.152.152,0,0,0,.152-.152v-.962s0-.007,0-.01,0-.006,0-.01V12.23a.152.152,0,0,0-.081-.135.152.152,0,0,0,.081-.135v-.269a.152.152,0,0,0-.3,0v.269a.152.152,0,0,0,.081.135.152.152,0,0,0-.081.135V14s0,.006,0,.01,0,.006,0,.01v.962a.152.152,0,0,0,.152.152" transform="translate(-256.608 -9.606)" fill="#fff"/>
    <path id="Tracé_17288" data-name="Tracé 17288" d="M63.658,177.823l.239.124a.152.152,0,0,1,.239.124l1.571.815.009,0,.008,0,.854.443a.152.152,0,0,0,.14-.27l-.854-.443-.009,0-.009,0-1.571-.815a.152.152,0,0,1-.239-.124l-.239-.124a.152.152,0,1,0-.14.27" transform="translate(-52.925 -147.794)" fill="#fff"/>
    <path id="Tracé_17289" data-name="Tracé 17289" d="M333.355,10.4h.018a.152.152,0,0,0,.151-.134l.061-.516a.152.152,0,0,0-.133-.169.151.151,0,0,0-.169.133l-.061.516a.152.152,0,0,0,.133.169" transform="translate(-277.398 -7.978)" fill="#fff"/>
    <path id="Tracé_17290" data-name="Tracé 17290" d="M249.82,11.6a.152.152,0,0,0-.124.176l.088.512a.152.152,0,0,0,.15.126l.026,0a.152.152,0,0,0,.124-.176L250,11.727a.152.152,0,0,0-.176-.124" transform="translate(-207.863 -9.657)" fill="#fff"/>
    <path id="Tracé_17291" data-name="Tracé 17291" d="M39.566,352.477a.156.156,0,0,0,.032,0l.263-.057a.152.152,0,0,1,.263-.057l1.73-.375.01,0,.009,0,.94-.2a.152.152,0,1,0-.064-.3l-.94.2-.01,0-.009,0-1.73.374a.152.152,0,0,0-.114.108.154.154,0,0,0-.149-.051l-.263.057a.152.152,0,0,0,.032.3" transform="translate(-32.811 -292.595)" fill="#fff"/>
    <path id="Tracé_17292" data-name="Tracé 17292" d="M284.855,35.413a.152.152,0,0,0-.144.16l.015.269a.152.152,0,0,1,.015.269l.1,1.768s0,.006,0,.009,0,.007,0,.01l.053.961a.152.152,0,0,0,.152.144h.008a.152.152,0,0,0,.144-.16l-.052-.961s0-.006,0-.009,0-.007,0-.01l-.1-1.768a.152.152,0,0,1-.015-.269l-.015-.269a.153.153,0,0,0-.16-.143" transform="translate(-237.015 -29.48)" fill="#fff"/>
    <path id="Tracé_17293" data-name="Tracé 17293" d="M286.057,57.43a.152.152,0,0,0-.144.16l.015.269a.152.152,0,0,1,.015.269l0,.073.3-.016,0-.074a.152.152,0,0,1-.015-.269l-.015-.269a.151.151,0,0,0-.16-.143" transform="translate(-238.015 -47.809)" fill="#fff"/>
    <path id="Tracé_17294" data-name="Tracé 17294" d="M283.653,13.4a.152.152,0,0,0-.143.16l.015.269a.152.152,0,0,0,.089.13.152.152,0,0,0-.074.139l.1,1.767a.092.092,0,0,0,0,.01s0,.007,0,.01l.052.96a.152.152,0,0,0,.152.144h.008a.152.152,0,0,0,.144-.16l-.052-.961s0-.006,0-.01,0-.006,0-.01l-.1-1.767a.152.152,0,0,0-.089-.13.152.152,0,0,0,.074-.139l-.015-.269a.153.153,0,0,0-.16-.143" transform="translate(-236.014 -11.152)" fill="#fff"/>
    <path id="Tracé_17295" data-name="Tracé 17295" d="M61.118,350.249a.154.154,0,0,0,.032,0l.263-.057a.152.152,0,0,1,.263-.057l.439-.095c-.022-.1-.044-.2-.064-.3l-.439.095a.152.152,0,0,1-.263.057l-.263.057a.152.152,0,0,0,.032.3" transform="translate(-50.753 -291.148)" fill="#fff"/>
    <path id="Tracé_17296" data-name="Tracé 17296" d="M97.54,163.719a.152.152,0,0,0,.041.211l.223.151a.152.152,0,0,1,.223.151l.238.161c.056-.085.111-.17.168-.254l-.236-.159a.152.152,0,0,1-.223-.151l-.223-.151a.152.152,0,0,0-.211.041" transform="translate(-81.178 -136.236)" fill="#fff"/>
    <path id="Tracé_17297" data-name="Tracé 17297" d="M283.352,7.89a.152.152,0,0,0-.144.16l.028.519a.152.152,0,0,0,.152.144h.009a.152.152,0,0,0,.144-.16l-.028-.519a.152.152,0,0,0-.16-.143" transform="translate(-235.763 -6.568)" fill="#fff"/>
    <path id="Tracé_17298" data-name="Tracé 17298" d="M42.344,234.677a.152.152,0,0,0-.111-.112l-.261-.066a.152.152,0,1,0-.075.295l.261.066a.152.152,0,0,1,.261.066l1.716.435.009,0,.009,0,.933.236a.152.152,0,1,0,.075-.295l-.933-.236-.009,0-.009,0-1.716-.434a.151.151,0,0,0-.15.046" transform="translate(-34.783 -195.21)" fill="#fff"/>
    <path id="Tracé_17299" data-name="Tracé 17299" d="M12.954,326.309h.015l.268-.026a.152.152,0,0,0,.126-.094.151.151,0,0,0,.142.068l1.762-.173h.019l.957-.094a.152.152,0,1,0-.029-.3l-.957.094h-.019l-1.762.173a.152.152,0,0,0-.126.094.153.153,0,0,0-.142-.068L12.94,326a.152.152,0,0,0,.015.3" transform="translate(-10.658 -271.122)" fill="#fff"/>
    <path id="Tracé_17300" data-name="Tracé 17300" d="M400.963,20.022a.152.152,0,0,0,.195-.091l.043-.117a.152.152,0,1,0-.286-.1l-.043.117a.152.152,0,0,0,.091.2" transform="translate(-333.708 -16.325)" fill="#fff"/>
    <path id="Tracé_17301" data-name="Tracé 17301" d="M248.848,6.088l.026,0A.152.152,0,0,0,249,5.911l-.021-.123a.152.152,0,0,0-.3.051l.021.123a.152.152,0,0,0,.15.126" transform="translate(-207.015 -4.713)" fill="#fff"/>
    <path id="Tracé_17302" data-name="Tracé 17302" d="M230.894,66.758a.152.152,0,0,0-.1.189l.076.258a.152.152,0,0,1,.076.258l.024.081.291-.087-.023-.08a.152.152,0,0,1-.076-.259l-.076-.258a.152.152,0,0,0-.189-.1" transform="translate(-192.121 -55.569)" fill="#fff"/>
    <path id="Tracé_17303" data-name="Tracé 17303" d="M254.479,38.77a.152.152,0,0,0-.124.176l.046.266a.152.152,0,0,1,.045.265l.3,1.745,0,.01a.084.084,0,0,0,0,.009l.163.948a.152.152,0,0,0,.15.126l.026,0a.152.152,0,0,0,.124-.176l-.163-.948,0-.01s0-.006,0-.009l-.3-1.745a.152.152,0,0,1-.045-.265l-.046-.266a.152.152,0,0,0-.176-.124" transform="translate(-211.742 -32.273)" fill="#fff"/>
    <path id="Tracé_17304" data-name="Tracé 17304" d="M258.082,60.679l.045.266a.152.152,0,0,1,.046.266l.013.073.3-.05-.013-.074a.152.152,0,0,1-.046-.266l-.046-.266a.152.152,0,0,0-.3.051" transform="translate(-214.844 -50.365)" fill="#fff"/>
    <path id="Tracé_17305" data-name="Tracé 17305" d="M283.038,2.3h.008a.152.152,0,0,0,.144-.16l-.007-.124a.155.155,0,0,0-.16-.144.152.152,0,0,0-.144.16l.007.124a.152.152,0,0,0,.152.144" transform="translate(-235.49 -1.56)" fill="#fff"/>
    <path id="Tracé_17306" data-name="Tracé 17306" d="M250.751,17.037a.152.152,0,0,0-.124.176l.046.266a.152.152,0,0,0,.1.119.152.152,0,0,0-.057.146l.3,1.745,0,.01a.09.09,0,0,0,0,.009l.163.948a.152.152,0,0,0,.15.126l.026,0a.152.152,0,0,0,.124-.176l-.163-.948s0-.007,0-.01v-.009l-.3-1.745a.152.152,0,0,0-.1-.119.152.152,0,0,0,.057-.146l-.046-.266a.152.152,0,0,0-.175-.124" transform="translate(-208.638 -14.181)" fill="#fff"/>
    <path id="Tracé_17307" data-name="Tracé 17307" d="M72.687,213.549l-.33-.125a.152.152,0,0,1-.252-.1l-.252-.1a.152.152,0,0,0-.108.284l.252.1a.152.152,0,0,1,.252.1l.33.126c.035-.1.072-.19.108-.285" transform="translate(-59.645 -177.501)" fill="#fff"/>
    <path id="Tracé_17308" data-name="Tracé 17308" d="M92.515,426.345l.228-.143a.152.152,0,0,1,.228-.143l.368-.23-.16-.258-.369.231a.152.152,0,0,1-.228.143l-.228.143a.152.152,0,1,0,.161.258" transform="translate(-76.823 -354.275)" fill="#fff"/>
    <path id="Tracé_17309" data-name="Tracé 17309" d="M33.734,295.23l.269,0h0a.15.15,0,0,1,.267,0l1.77.031h.019l.962.017h0a.152.152,0,0,0,0-.3l-.962-.017h-.019l-1.77-.031h0a.15.15,0,0,1-.267,0l-.269,0h0a.152.152,0,0,0,0,.3" transform="translate(-27.958 -245.518)" fill="#fff"/>
    <path id="Tracé_17310" data-name="Tracé 17310" d="M224.691,45.6a.152.152,0,0,0-.1.189l.076.259a.152.152,0,0,1,.076.258l.5,1.7,0,.009,0,.009.271.923a.152.152,0,0,0,.146.109.146.146,0,0,0,.043-.006.152.152,0,0,0,.1-.188l-.271-.923,0-.009,0-.009-.5-1.7a.152.152,0,0,1-.076-.259l-.076-.258a.152.152,0,0,0-.189-.1" transform="translate(-186.958 -37.953)" fill="#fff"/>
    <path id="Tracé_17311" data-name="Tracé 17311" d="M68.547,376.732a.153.153,0,0,0,.049-.008l.255-.087a.152.152,0,0,1,.255-.087l.421-.144c-.033-.1-.066-.192-.1-.288l-.422.144a.152.152,0,0,1-.255.087l-.255.087a.152.152,0,0,0,.049.3" transform="translate(-56.937 -313.109)" fill="#fff"/>
    <path id="Tracé_17312" data-name="Tracé 17312" d="M156.38,104.2l-.1-.14a.152.152,0,0,1-.159-.218l-.159-.217a.152.152,0,0,0-.246.18l.159.217a.154.154,0,0,0,.145.061.152.152,0,0,0,.014.157l.1.141c.081-.061.163-.12.245-.18" transform="translate(-129.603 -86.212)" fill="#fff"/>
    <path id="Tracé_17313" data-name="Tracé 17313" d="M98.068,127.509a.152.152,0,0,1,.2.175l1.343,1.153.007.006.008.007.73.626a.152.152,0,1,0,.2-.231l-.73-.626-.007-.006-.008-.007-1.343-1.153a.152.152,0,0,1-.2-.175l-.2-.176a.152.152,0,0,0-.2.231Z" transform="translate(-81.425 -105.779)" fill="#fff"/>
    <path id="Tracé_17314" data-name="Tracé 17314" d="M115,141.637l-.2-.175a.152.152,0,0,0-.2.231l.2.176a.152.152,0,0,1,.2.175l.192.165c.065-.078.13-.156.2-.233l-.189-.162a.152.152,0,0,1-.2-.176" transform="translate(-95.356 -117.733)" fill="#fff"/>
    <path id="Tracé_17315" data-name="Tracé 17315" d="M56.845,323.12h.015l.268-.026a.152.152,0,0,1,.268-.026l.443-.044c-.01-.1-.017-.2-.027-.3l-.446.044a.152.152,0,0,1-.268.026l-.268.026a.152.152,0,0,0,.015.3" transform="translate(-47.196 -268.655)" fill="#fff"/>
    <path id="Tracé_17316" data-name="Tracé 17316" d="M134.8,121.907l-.144-.156a.152.152,0,0,1-.183-.2l-.183-.2a.152.152,0,1,0-.223.207l.183.2a.152.152,0,0,1,.183.2l.146.157.222-.208" transform="translate(-111.57 -100.985)" fill="#fff"/>
    <path id="Tracé_17317" data-name="Tracé 17317" d="M58.359,267.524a.152.152,0,0,0-.123-.1l-.267-.036a.152.152,0,1,0-.04.3l.267.036a.152.152,0,0,1,.267.036l.409.055c.013-.1.028-.2.042-.3l-.411-.055a.15.15,0,0,0-.144.063" transform="translate(-48.114 -222.594)" fill="#fff"/>
    <path id="Tracé_17318" data-name="Tracé 17318" d="M36.072,264.774l.267.036a.152.152,0,0,1,.267.036l1.755.234h.019l.954.127h.02a.152.152,0,0,0,.02-.3l-.954-.127H38.4l-1.755-.234a.15.15,0,0,0-.144.063.152.152,0,0,0-.123-.1l-.267-.036a.152.152,0,1,0-.04.3" transform="translate(-29.919 -220.165)" fill="#fff"/>
    <path id="Tracé_17319" data-name="Tracé 17319" d="M56.763,295.325l-.438-.008a.145.145,0,0,0-.136.079.152.152,0,0,0-.133-.084l-.269,0h0a.152.152,0,0,0,0,.3l.269,0h0a.15.15,0,0,1,.267,0l.439.008c0-.1,0-.2,0-.3" transform="translate(-46.312 -245.836)" fill="#fff"/>
    <path id="Tracé_17320" data-name="Tracé 17320" d="M34.9,324.153h.015l.268-.026a.152.152,0,0,1,.268-.026l1.762-.173h.019l.957-.094a.152.152,0,0,0-.029-.3l-.957.094h-.019l-1.762.173a.152.152,0,0,1-.268.026l-.268.026a.152.152,0,0,0,.015.3" transform="translate(-28.926 -269.327)" fill="#fff"/>
    <path id="Tracé_17321" data-name="Tracé 17321" d="M63.274,240.205l.261.066a.152.152,0,0,1,.261.066l.374.095c.024-.1.047-.2.072-.3l-.371-.094a.152.152,0,0,1-.261-.066l-.261-.066a.152.152,0,0,0-.075.295" transform="translate(-52.578 -199.715)" fill="#fff"/>
    <path id="Tracé_17322" data-name="Tracé 17322" d="M84.134,188.1l-.284-.147a.152.152,0,0,1-.239-.124l-.239-.124a.152.152,0,0,0-.14.27l.239.124a.152.152,0,0,1,.239.124l.283.147c.046-.09.094-.18.141-.27" transform="translate(-69.22 -156.247)" fill="#fff"/>
    <path id="Tracé_17323" data-name="Tracé 17323" d="M79.528,151.743a.152.152,0,0,1,.223.151l1.467.99.008.005.008.006.8.538a.152.152,0,1,0,.17-.252l-.8-.538-.008-.005-.008-.006-1.467-.991a.152.152,0,0,1-.223-.151l-.223-.151a.152.152,0,1,0-.17.252Z" transform="translate(-65.963 -125.965)" fill="#fff"/>
    <path id="Tracé_17324" data-name="Tracé 17324" d="M79.032,402.215a.15.15,0,0,0,.065-.015l.243-.116a.152.152,0,0,1,.243-.116l.4-.189c-.043-.091-.085-.184-.128-.276l-.4.19a.152.152,0,0,1-.243.116l-.243.116a.152.152,0,0,0,.065.29" transform="translate(-65.665 -334.241)" fill="#fff"/>
    <path id="Tracé_17325" data-name="Tracé 17325" d="M547.17,312.111l-.269-.012a.156.156,0,0,0-.138.075.152.152,0,0,0-.131-.087L544.863,312h-.019l-.961-.044a.152.152,0,0,0-.014.3l.961.044h.019l1.768.081a.16.16,0,0,0,.138-.075.152.152,0,0,0,.131.087l.269.012h.007a.152.152,0,0,0,.007-.3" transform="translate(-452.635 -259.698)" fill="#fff"/>
    <path id="Tracé_17326" data-name="Tracé 17326" d="M568.882,280.79l-.269.019a.152.152,0,0,0-.129.09.148.148,0,0,0-.14-.072l-1.766.122h-.019l-.96.067a.152.152,0,0,0,.01.3h.011l.96-.067h.019l1.766-.123a.151.151,0,0,0,.129-.09.148.148,0,0,0,.14.072l.269-.019a.152.152,0,0,0,.141-.162.149.149,0,0,0-.162-.141" transform="translate(-470.728 -233.749)" fill="#fff"/>
    <path id="Tracé_17327" data-name="Tracé 17327" d="M537.073,311.612l-.269-.012a.159.159,0,0,0-.138.075.152.152,0,0,0-.131-.087l-.492-.023q-.007.152-.015.3l.493.023a.152.152,0,0,1,.269.012l.269.012h.007a.152.152,0,0,0,.007-.3" transform="translate(-446.229 -259.369)" fill="#fff"/>
    <path id="Tracé_17328" data-name="Tracé 17328" d="M587.456,280.608a.152.152,0,0,0,.152.142h.011l.518-.036a.152.152,0,1,0-.021-.3l-.518.036a.152.152,0,0,0-.141.162" transform="translate(-489.041 -233.433)" fill="#fff"/>
    <path id="Tracé_17329" data-name="Tracé 17329" d="M526.489,193.725l-.246.109a.152.152,0,0,1-.246.109l-1.62.714-.009,0-.008,0-.88.388a.152.152,0,0,0,.123.278l.88-.388.009,0,.008,0,1.62-.714a.152.152,0,0,1,.246-.109l.246-.109a.152.152,0,1,0-.123-.278" transform="translate(-435.706 -161.26)" fill="#fff"/>
    <path id="Tracé_17330" data-name="Tracé 17330" d="M564.6,248.12a.151.151,0,0,0-.147-.055l-1.74.325-.01,0h-.009l-.946.177a.152.152,0,0,0,.028.3l.028,0,.945-.177.01,0h.009l1.74-.325a.152.152,0,0,1,.265-.049l.265-.05a.152.152,0,0,0-.056-.3l-.265.05a.152.152,0,0,0-.117.1" transform="translate(-467.534 -206.423)" fill="#fff"/>
    <path id="Tracé_17331" data-name="Tracé 17331" d="M513.48,166.51l-.232.136a.152.152,0,0,1-.232.137l-1.527.9-.008,0-.009,0-.83.487a.152.152,0,1,0,.154.262l.83-.487.008,0,.009,0,1.527-.9a.152.152,0,0,1,.232-.136l.232-.136a.152.152,0,1,0-.154-.262" transform="translate(-425.033 -138.598)" fill="#fff"/>
    <path id="Tracé_17332" data-name="Tracé 17332" d="M528.015,365.65l-.259-.073a.152.152,0,0,1-.259-.074l-.473-.134c-.027.1-.057.194-.085.292l.475.135a.152.152,0,0,1,.259.074l.259.073a.149.149,0,0,0,.042.006.152.152,0,0,0,.041-.3" transform="translate(-438.662 -304.16)" fill="#fff"/>
    <path id="Tracé_17333" data-name="Tracé 17333" d="M527.028,228.868l-.257.08a.152.152,0,0,1-.257.08l-.4.123c.029.1.057.194.086.292l.4-.124a.152.152,0,0,1,.257-.08l.257-.08a.152.152,0,0,0-.09-.29" transform="translate(-437.977 -190.521)" fill="#fff"/>
    <path id="Tracé_17334" data-name="Tracé 17334" d="M536.863,283.845l-.269.019a.152.152,0,0,1-.269.019l-.476.033c.007.1.013.2.019.3l.478-.033a.151.151,0,0,0,.129-.09.147.147,0,0,0,.14.072l.269-.019a.152.152,0,0,0,.141-.162.15.15,0,0,0-.162-.141" transform="translate(-446.079 -236.292)" fill="#fff"/>
    <path id="Tracé_17335" data-name="Tracé 17335" d="M546.884,282.319l-.269.019a.152.152,0,0,0-.129.09.148.148,0,0,0-.14-.072l-1.766.122h-.019l-.96.067a.152.152,0,0,0,.01.3h.011l.96-.067h.019l1.766-.123a.152.152,0,0,1,.269-.019l.269-.019a.152.152,0,1,0-.021-.3" transform="translate(-452.415 -235.022)" fill="#fff"/>
    <path id="Tracé_17336" data-name="Tracé 17336" d="M533.5,256.063l-.265.05a.152.152,0,0,1-.265.049l-.44.082q.027.15.053.3l.443-.083a.152.152,0,0,1,.265-.049l.265-.05a.152.152,0,0,0-.056-.3" transform="translate(-443.313 -213.163)" fill="#fff"/>
    <path id="Tracé_17337" data-name="Tracé 17337" d="M495.174,143.3l.768-.579.008-.006.008-.006,1.414-1.065a.152.152,0,0,1,.215-.162l.215-.162a.152.152,0,1,0-.183-.243l-.215.162a.152.152,0,0,1-.215.162l-1.414,1.065-.008.006-.008.006-.768.579a.152.152,0,1,0,.183.243" transform="translate(-412.016 -117.413)" fill="#fff"/>
    <path id="Tracé_17338" data-name="Tracé 17338" d="M517.867,391.453l.449.186a.152.152,0,0,1,.249.1l.249.1a.152.152,0,0,0,.116-.281l-.249-.1a.152.152,0,0,1-.249-.1l-.451-.186c-.039.094-.075.188-.114.282" transform="translate(-431.11 -325.639)" fill="#fff"/>
    <path id="Tracé_17339" data-name="Tracé 17339" d="M505.883,416.061l.42.233a.152.152,0,0,1,.236.131l.235.131a.149.149,0,0,0,.074.019.152.152,0,0,0,.074-.285l-.235-.131a.152.152,0,0,1-.236-.131l-.42-.233-.148.266" transform="translate(-421.134 -346.138)" fill="#fff"/>
    <path id="Tracé_17340" data-name="Tracé 17340" d="M505.14,177.667l-.232.136a.152.152,0,0,1-.232.136l-.3.176c.051.088.1.175.152.264l.3-.177a.152.152,0,0,1,.232-.136l.232-.136a.152.152,0,1,0-.154-.262" transform="translate(-419.879 -147.886)" fill="#fff"/>
    <path id="Tracé_17341" data-name="Tracé 17341" d="M517.531,202.62l-.246.109a.152.152,0,0,1-.247.109l-.35.154c.04.093.082.186.121.279l.352-.155a.152.152,0,0,1,.246-.109l.246-.109a.152.152,0,0,0-.123-.278" transform="translate(-430.128 -168.665)" fill="#fff"/>
    <path id="Tracé_17342" data-name="Tracé 17342" d="M451.967,114.207l-.145.175.232.2.148-.177a.152.152,0,0,1,.172-.207l.172-.207a.152.152,0,1,0-.234-.195l-.172.207a.152.152,0,0,1-.172.207" transform="translate(-376.129 -94.684)" fill="#fff"/>
    <path id="Tracé_17343" data-name="Tracé 17343" d="M528.438,395.632l-.249-.1a.152.152,0,0,1-.249-.1l-1.636-.676-.009,0-.009,0-.889-.367a.152.152,0,1,0-.116.281l.889.367.009,0,.009,0,1.636.676a.152.152,0,0,1,.249.1l.249.1a.15.15,0,0,0,.058.012.152.152,0,0,0,.058-.293" transform="translate(-437.204 -328.297)" fill="#fff"/>
    <path id="Tracé_17344" data-name="Tracé 17344" d="M565.922,344.15l-.266-.043a.151.151,0,0,0-.146.059.153.153,0,0,0-.12-.1l-1.747-.284h-.01l-.009,0-.949-.155a.152.152,0,1,0-.049.3l.95.155h.01l.01,0,1.747.284a.152.152,0,0,1,.266.043l.266.043.025,0a.152.152,0,0,0,.024-.3" transform="translate(-468.264 -286.053)" fill="#fff"/>
    <path id="Tracé_17345" data-name="Tracé 17345" d="M537.886,368.575l-.259-.074a.152.152,0,0,1-.259-.074l-1.7-.483-.01,0-.009,0-.925-.263a.152.152,0,1,0-.083.292l.925.263.01,0,.009,0,1.7.483a.152.152,0,0,1,.259.074l.259.074a.148.148,0,0,0,.042.006.152.152,0,0,0,.042-.3" transform="translate(-444.979 -306.076)" fill="#fff"/>
    <path id="Tracé_17346" data-name="Tracé 17346" d="M500.343,445.448a.152.152,0,0,1-.219-.157l-1.438-1.032-.008-.006-.007-.005-.781-.561a.152.152,0,1,0-.177.247l.782.561.008.006.007.005,1.438,1.032a.152.152,0,0,1,.219.157l.219.157a.152.152,0,1,0,.177-.247Z" transform="translate(-414.278 -369.333)" fill="#fff"/>
    <path id="Tracé_17347" data-name="Tracé 17347" d="M515.943,421.425l-.236-.131a.152.152,0,0,1-.236-.131l-1.547-.86-.009,0-.008,0-.841-.467a.152.152,0,0,0-.148.266l.841.467.009,0,.008.005,1.547.86a.152.152,0,0,1,.235.131l.236.131a.152.152,0,0,0,.148-.266" transform="translate(-426.926 -349.478)" fill="#fff"/>
    <path id="Tracé_17348" data-name="Tracé 17348" d="M595.82,280.163a.152.152,0,0,0,.152.142h.011l.124-.009a.152.152,0,1,0-.021-.3l-.124.009a.152.152,0,0,0-.141.162" transform="translate(-496.004 -233.085)" fill="#fff"/>
    <path id="Tracé_17349" data-name="Tracé 17349" d="M588.457,314.01l-.519-.024a.152.152,0,0,0-.014.3l.519.024h.007a.152.152,0,0,0,.007-.3" transform="translate(-489.31 -261.385)" fill="#fff"/>
    <path id="Tracé_17350" data-name="Tracé 17350" d="M569.2,313.124l-.269-.012a.157.157,0,0,0-.138.075.152.152,0,0,0-.131-.087l-1.768-.081h-.019l-.961-.044a.152.152,0,0,0-.014.3l.961.044h.019l1.768.081a.161.161,0,0,0,.138-.075.152.152,0,0,0,.131.087l.269.012h.007a.152.152,0,0,0,.007-.3" transform="translate(-470.973 -260.541)" fill="#fff"/>
    <path id="Tracé_17351" data-name="Tracé 17351" d="M474.486,460.957l.2.181a.152.152,0,0,0,.2-.225l-.2-.181a.152.152,0,0,1-.2-.181l-.333-.3-.2.225.334.3a.153.153,0,0,0,.154.031.151.151,0,0,0,.045.151" transform="translate(-394.553 -383.144)" fill="#fff"/>
    <path id="Tracé_17352" data-name="Tracé 17352" d="M482.3,467.677a.152.152,0,0,1-.2-.181l-1.31-1.19-.007-.006-.007-.007-.712-.647a.152.152,0,1,0-.2.225l.712.647.007.006.007.007,1.31,1.191a.152.152,0,0,1,.2.181l.2.181a.152.152,0,0,0,.2-.225Z" transform="translate(-399.429 -387.604)" fill="#fff"/>
    <path id="Tracé_17353" data-name="Tracé 17353" d="M429.95,97.554l-.1.154c.084.056.17.111.254.168l.1-.155a.152.152,0,0,0,.005-.157.156.156,0,0,0,.142-.068l.147-.225a.152.152,0,1,0-.254-.167l-.147.225a.152.152,0,0,0-.005.157.155.155,0,0,0-.142.068" transform="translate(-357.837 -80.779)" fill="#fff"/>
    <path id="Tracé_17354" data-name="Tracé 17354" d="M471.927,133.328l-.2.186c.069.074.138.149.207.223l.2-.189a.152.152,0,0,1,.195-.186l.2-.186a.152.152,0,0,0-.21-.22l-.2.186a.152.152,0,0,1-.2.186" transform="translate(-392.704 -110.648)" fill="#fff"/>
    <path id="Tracé_17355" data-name="Tracé 17355" d="M533.65,339.034a.152.152,0,0,0,.12.1l.266.043.024,0a.152.152,0,0,0,.024-.3l-.266-.043a.152.152,0,0,1-.266-.043l-.49-.08q-.024.15-.049.3l.491.08a.151.151,0,0,0,.146-.059" transform="translate(-443.719 -281.969)" fill="#fff"/>
    <path id="Tracé_17356" data-name="Tracé 17356" d="M489.577,154.667l-.246.185c.06.081.119.164.178.246l.25-.189a.152.152,0,0,0,.058-.146.153.153,0,0,0,.157-.016l.215-.162a.152.152,0,0,0-.183-.243l-.215.162a.152.152,0,0,1-.215.162" transform="translate(-407.355 -128.46)" fill="#fff"/>
    <path id="Tracé_17357" data-name="Tracé 17357" d="M432.794,496.579l.229.333a.149.149,0,0,0,.143.065.152.152,0,0,0,.009.157l.153.222a.152.152,0,1,0,.251-.172l-.153-.222a.148.148,0,0,0-.143-.065.152.152,0,0,0-.009-.157l-.23-.334-.249.174" transform="translate(-360.289 -413.243)" fill="#fff"/>
    <path id="Tracé_17358" data-name="Tracé 17358" d="M454.415,479.694l.281.322a.152.152,0,0,1,.177.2l.177.2a.152.152,0,0,0,.229-.2l-.177-.2a.152.152,0,0,1-.177-.2l-.283-.324c-.076.067-.151.136-.227.2" transform="translate(-378.288 -399.164)" fill="#fff"/>
    <path id="Tracé_17359" data-name="Tracé 17359" d="M445.518,63.157a.15.15,0,0,0,.083.025.152.152,0,0,0,.128-.069l.526-.8,0-.008.006-.008.969-1.482a.152.152,0,0,0,.006-.157.155.155,0,0,0,.142-.068l.147-.225a.152.152,0,0,0-.255-.167l-.147.225a.153.153,0,0,0-.006.157.154.154,0,0,0-.142.068l-.969,1.482,0,.008-.006.008-.527.8a.152.152,0,0,0,.044.211" transform="translate(-370.824 -50.051)" fill="#fff"/>
    <path id="Tracé_17360" data-name="Tracé 17360" d="M470.344,82.681a.151.151,0,0,0,.117-.055l.616-.739.006-.008.006-.007,1.133-1.36a.152.152,0,0,1,.172-.207l.172-.207a.152.152,0,0,0-.234-.195l-.172.207a.153.153,0,0,0-.024.156.151.151,0,0,0-.149.051l-1.133,1.36-.006.008-.006.007-.616.739a.152.152,0,0,0,.117.249" transform="translate(-391.421 -66.472)" fill="#fff"/>
    <path id="Tracé_17361" data-name="Tracé 17361" d="M489.82,71.382a.152.152,0,0,0,.117-.055l.08-.1a.152.152,0,1,0-.234-.195l-.08.1a.152.152,0,0,0,.117.249" transform="translate(-407.635 -59.091)" fill="#fff"/>
    <path id="Tracé_17362" data-name="Tracé 17362" d="M462.174,50.85a.15.15,0,0,0,.083.025.152.152,0,0,0,.128-.069l.068-.1a.152.152,0,1,0-.255-.166l-.068.1a.152.152,0,0,0,.044.21" transform="translate(-384.69 -42.012)" fill="#fff"/>
    <path id="Tracé_17363" data-name="Tracé 17363" d="M456.737,98.63l-.007.007-.616.739a.152.152,0,0,0,.234.195l.616-.739.006-.008.007-.007,1.132-1.36a.152.152,0,0,1,.172-.207l.172-.207a.152.152,0,0,0-.234-.195l-.172.207a.152.152,0,0,1-.172.207l-1.133,1.36-.006.008" transform="translate(-379.674 -80.578)" fill="#fff"/>
    <path id="Tracé_17364" data-name="Tracé 17364" d="M484.454,76.315a.152.152,0,0,0,.117-.055l.332-.4a.152.152,0,0,0-.234-.195l-.332.4a.152.152,0,0,0,.117.249" transform="translate(-403.168 -62.945)" fill="#fff"/>
    <path id="Tracé_17365" data-name="Tracé 17365" d="M543.3,252.014l-.265.05a.152.152,0,0,1-.265.049l-1.74.325-.01,0h-.009l-.946.176a.152.152,0,0,0,.028.3l.028,0,.946-.177.01,0h.009l1.74-.325a.152.152,0,0,1,.265-.049l.265-.05a.152.152,0,0,0-.056-.3" transform="translate(-449.489 -209.792)" fill="#fff"/>
    <path id="Tracé_17366" data-name="Tracé 17366" d="M479.118,117.749l-.2.186a.152.152,0,0,1-.2.186l-1.282,1.221-.007.007-.007.007-.7.664a.152.152,0,1,0,.21.22l.7-.664.007-.007.007-.007,1.282-1.221a.152.152,0,0,1,.2-.186l.2-.186a.152.152,0,1,0-.21-.22" transform="translate(-396.83 -97.988)" fill="#fff"/>
    <path id="Tracé_17367" data-name="Tracé 17367" d="M492.807,105.071a.152.152,0,0,0,.1-.042l.7-.664.007-.007.007-.006,1.282-1.221a.152.152,0,0,1,.2-.186l.195-.186a.152.152,0,0,0-.21-.22l-.2.186a.152.152,0,0,0-.041.152.154.154,0,0,0-.154.034l-1.282,1.221-.007.007-.007.006-.7.664a.152.152,0,0,0,.1.262" transform="translate(-410.122 -85.326)" fill="#fff"/>
    <path id="Tracé_17368" data-name="Tracé 17368" d="M408.977,66.537a.152.152,0,0,0,.2-.068l.43-.86,0-.009,0-.008.792-1.583a.152.152,0,0,1,.12-.241l.121-.241a.152.152,0,0,0-.272-.136l-.121.241a.152.152,0,0,1-.12.241l-.792,1.583,0,.009,0,.008-.43.86a.152.152,0,0,0,.068.2" transform="translate(-340.392 -52.701)" fill="#fff"/>
    <path id="Tracé_17369" data-name="Tracé 17369" d="M418.841,46.818a.152.152,0,0,0,.2-.068l.43-.86,0-.009,0-.009.792-1.583a.151.151,0,0,0-.013-.157.153.153,0,0,0,.133-.084l.12-.241a.152.152,0,0,0-.272-.136l-.12.241a.152.152,0,0,1-.121.241l-.792,1.583,0,.009,0,.008-.43.86a.152.152,0,0,0,.068.2" transform="translate(-348.604 -36.285)" fill="#fff"/>
    <path id="Tracé_17370" data-name="Tracé 17370" d="M457.586,56.224a.151.151,0,0,0,.083.025.152.152,0,0,0,.128-.069l.284-.435a.152.152,0,0,0-.255-.167l-.284.435a.152.152,0,0,0,.044.211" transform="translate(-380.87 -46.21)" fill="#fff"/>
    <path id="Tracé_17371" data-name="Tracé 17371" d="M514.844,94.929a.152.152,0,0,0,.1-.042l.09-.086a.152.152,0,0,0-.21-.22l-.09.086a.152.152,0,0,0,.1.262" transform="translate(-428.467 -78.701)" fill="#fff"/>
    <path id="Tracé_17372" data-name="Tracé 17372" d="M428.706,39.409a.152.152,0,0,0,.2-.068l.232-.465a.152.152,0,0,0-.272-.136l-.232.465a.152.152,0,0,0,.068.2" transform="translate(-356.816 -32.181)" fill="#fff"/>
    <path id="Tracé_17373" data-name="Tracé 17373" d="M432.457,33.666a.152.152,0,0,0,.2-.068l.056-.111a.152.152,0,0,0-.272-.136l-.056.111a.152.152,0,0,0,.068.2" transform="translate(-359.939 -27.694)" fill="#fff"/>
    <path id="Tracé_17374" data-name="Tracé 17374" d="M406.36,83.861l.065-.13a.152.152,0,0,1,.121-.241l.12-.241a.152.152,0,0,0-.272-.136l-.12.241a.152.152,0,0,1-.121.241l-.064.128.271.138" transform="translate(-338.058 -69.12)" fill="#fff"/>
    <path id="Tracé_17375" data-name="Tracé 17375" d="M433.451,81.612a.15.15,0,0,0,.083.025.152.152,0,0,0,.127-.069l.527-.805,0-.008.006-.008.969-1.482a.152.152,0,0,0,.006-.157.154.154,0,0,0,.142-.068l.147-.225a.152.152,0,1,0-.254-.167l-.147.225a.152.152,0,0,0-.005.157.154.154,0,0,0-.142.068l-.969,1.482,0,.008-.006.008-.526.805a.152.152,0,0,0,.044.211" transform="translate(-360.778 -65.414)" fill="#fff"/>
    <path id="Tracé_17376" data-name="Tracé 17376" d="M508.773,99.358a.152.152,0,0,0,.1-.042l.376-.358a.152.152,0,1,0-.21-.22l-.376.358a.152.152,0,0,0,.1.262" transform="translate(-423.413 -82.161)" fill="#fff"/>
    <path id="Tracé_17377" data-name="Tracé 17377" d="M575.364,214.555a.152.152,0,0,0,.145.107.155.155,0,0,0,.045-.007l.5-.153a.152.152,0,0,0-.09-.291l-.5.153a.152.152,0,0,0-.1.19" transform="translate(-478.969 -178.319)" fill="#fff"/>
    <path id="Tracé_17378" data-name="Tracé 17378" d="M571.427,180.427a.152.152,0,0,0,.2.078l.114-.05a.152.152,0,0,0-.123-.278l-.114.05a.152.152,0,0,0-.078.2" transform="translate(-475.686 -149.981)" fill="#fff"/>
    <path id="Tracé_17379" data-name="Tracé 17379" d="M557.283,215.918a.152.152,0,0,1-.257.08l-1.691.523-.01,0-.009,0-.919.284a.152.152,0,0,0,.045.3.156.156,0,0,0,.045-.007l.919-.284.009,0,.009,0,1.691-.523a.152.152,0,0,1,.257-.08l.257-.079a.152.152,0,0,0-.09-.291Z" transform="translate(-461.431 -179.674)" fill="#fff"/>
    <path id="Tracé_17380" data-name="Tracé 17380" d="M583.3,247.228a.152.152,0,0,0,.149.124l.028,0,.511-.1a.152.152,0,1,0-.056-.3l-.511.1a.152.152,0,0,0-.122.178" transform="translate(-485.578 -205.581)" fill="#fff"/>
    <path id="Tracé_17381" data-name="Tracé 17381" d="M583.518,212.764a.154.154,0,0,0,.045-.007l.119-.037a.152.152,0,1,0-.09-.29l-.119.037a.152.152,0,0,0,.045.3" transform="translate(-485.636 -176.837)" fill="#fff"/>
    <path id="Tracé_17382" data-name="Tracé 17382" d="M591.69,246.174l.028,0,.122-.023a.152.152,0,1,0-.056-.3l-.122.023a.152.152,0,0,0,.028.3" transform="translate(-492.439 -204.66)" fill="#fff"/>
    <path id="Tracé_17383" data-name="Tracé 17383" d="M492.212,439.722a.152.152,0,0,0-.035-.212l-.219-.157a.152.152,0,0,1-.219-.157l-.38-.272c-.059.083-.119.164-.178.246l.381.273a.152.152,0,0,1,.219.157l.219.157a.152.152,0,0,0,.212-.035" transform="translate(-408.895 -365.391)" fill="#fff"/>
    <path id="Tracé_17384" data-name="Tracé 17384" d="M512.572,129.994a.152.152,0,0,0,.122.061.15.15,0,0,0,.091-.031l.768-.579.008-.006.008-.006,1.414-1.065a.152.152,0,0,1,.215-.162l.215-.162a.152.152,0,1,0-.183-.243l-.215.162a.152.152,0,0,1-.215.162l-1.414,1.065-.008.006-.008.006-.768.579a.152.152,0,0,0-.03.213" transform="translate(-426.676 -106.365)" fill="#fff"/>
    <path id="Tracé_17385" data-name="Tracé 17385" d="M543.723,340.766a.152.152,0,0,0,.12.1l.266.043.024,0a.152.152,0,0,0,.024-.3l-.266-.043a.152.152,0,0,1-.266-.043l-1.747-.284h-.009l-.01,0-.949-.154a.152.152,0,0,0-.049.3l.949.154h.01l.01,0,1.747.284a.152.152,0,0,0,.146-.059" transform="translate(-450.146 -283.108)" fill="#fff"/>
    <path id="Tracé_17386" data-name="Tracé 17386" d="M537,121.206a.151.151,0,0,0,.091-.031l.1-.075a.152.152,0,0,0-.183-.243l-.1.075a.152.152,0,0,0,.091.274" transform="translate(-446.91 -100.585)" fill="#fff"/>
    <path id="Tracé_17387" data-name="Tracé 17387" d="M530.5,156.527l-.008,0-.83.487a.152.152,0,1,0,.154.262l.83-.487.008-.006.008,0,1.527-.9a.152.152,0,0,1,.232-.136l.232-.136a.152.152,0,1,0-.154-.263l-.232.136a.152.152,0,0,1-.232.136l-1.527.9-.009.005" transform="translate(-440.866 -129.31)" fill="#fff"/>
    <path id="Tracé_17388" data-name="Tracé 17388" d="M530.3,125.069a.151.151,0,0,0,.091-.031l.415-.313a.152.152,0,1,0-.183-.243l-.415.313a.152.152,0,0,0,.092.274" transform="translate(-441.337 -103.603)" fill="#fff"/>
    <path id="Tracé_17389" data-name="Tracé 17389" d="M544.546,185.765l-.01,0-.88.388a.152.152,0,1,0,.123.278l.88-.388.008,0,.01,0,1.62-.714a.152.152,0,0,1,.246-.109l.247-.109a.152.152,0,0,0-.123-.278l-.246.109a.152.152,0,0,1-.246.109l-1.62.714-.008,0" transform="translate(-452.503 -153.855)" fill="#fff"/>
    <path id="Tracé_17390" data-name="Tracé 17390" d="M563.756,183.017a.152.152,0,0,0,.139.091.153.153,0,0,0,.061-.013l.475-.21a.152.152,0,0,0-.123-.278l-.475.21a.152.152,0,0,0-.078.2" transform="translate(-469.3 -152.004)" fill="#fff"/>
    <path id="Tracé_17391" data-name="Tracé 17391" d="M548.758,153.11a.152.152,0,0,0,.077-.021l.448-.263a.152.152,0,1,0-.154-.263l-.448.263a.152.152,0,0,0,.077.283" transform="translate(-456.699 -126.988)" fill="#fff"/>
    <path id="Tracé_17392" data-name="Tracé 17392" d="M555.99,149.862a.152.152,0,0,0,.077-.021l.107-.063a.152.152,0,0,0-.154-.262l-.107.063a.152.152,0,0,0,.077.283" transform="translate(-462.72 -124.45)" fill="#fff"/>
    <path id="Tracé_17393" data-name="Tracé 17393" d="M536.475,222.353l-.257.08a.151.151,0,0,0-.1.118.153.153,0,0,0-.153-.038l-1.691.523-.01,0-.009,0-.919.284a.152.152,0,0,0,.045.3.154.154,0,0,0,.045-.007l.919-.284.01,0,.009,0,1.691-.523a.152.152,0,0,1,.257-.08l.257-.08a.152.152,0,0,0-.09-.29" transform="translate(-443.895 -185.097)" fill="#fff"/>
    <path id="Tracé_17394" data-name="Tracé 17394" d="M331.807,537.418a.152.152,0,0,0,.129-.172l-.038-.267a.152.152,0,0,1-.038-.267l-.047-.334-.3.042.047.334a.152.152,0,0,1,.038.267l.038.267a.152.152,0,0,0,.15.131l.022,0" transform="translate(-275.975 -446.521)" fill="#fff"/>
    <path id="Tracé_17395" data-name="Tracé 17395" d="M305.9,597.926a.152.152,0,0,0-.148.156l0,.124a.152.152,0,0,0,.152.148h0a.152.152,0,0,0,.148-.156l0-.124a.152.152,0,0,0-.156-.148" transform="translate(-254.531 -497.757)" fill="#fff"/>
    <path id="Tracé_17396" data-name="Tracé 17396" d="M396.644,552.863a.152.152,0,0,0,.086-.2l-.1-.251a.152.152,0,0,1-.1-.251l-.643-1.649,0-.009,0-.009-.349-.9a.152.152,0,0,0-.283.111l.35.9,0,.009,0,.009.643,1.649a.152.152,0,0,1,.1.251l.1.251a.152.152,0,0,0,.2.086" transform="translate(-329.027 -457.447)" fill="#fff"/>
    <path id="Tracé_17397" data-name="Tracé 17397" d="M336.319,568.552a.152.152,0,0,0,.129-.172l-.038-.267a.152.152,0,0,1-.038-.267l-.249-1.752,0-.009v-.01l-.135-.952a.152.152,0,0,0-.3.043l.136.952s0,.006,0,.009,0,.007,0,.01l.249,1.752a.152.152,0,0,1,.038.267l.038.267a.152.152,0,0,0,.15.131l.022,0" transform="translate(-279.446 -470.34)" fill="#fff"/>
    <path id="Tracé_17398" data-name="Tracé 17398" d="M305.7,590.369h0a.152.152,0,0,0,.148-.156l-.013-.519a.157.157,0,0,0-.156-.148.152.152,0,0,0-.148.156l.014.519a.152.152,0,0,0,.152.148" transform="translate(-254.35 -490.781)" fill="#fff"/>
    <path id="Tracé_17399" data-name="Tracé 17399" d="M339.033,587.64a.152.152,0,0,0,.129-.172l-.073-.514a.152.152,0,0,0-.3.043l.073.514a.152.152,0,0,0,.15.131l.022,0" transform="translate(-282.031 -488.514)" fill="#fff"/>
    <path id="Tracé_17400" data-name="Tracé 17400" d="M304.628,549.052h0a.152.152,0,0,0,.148-.156l-.007-.269a.152.152,0,0,1-.007-.269l-.046-1.769s0-.007,0-.01v-.009l-.025-.962a.155.155,0,0,0-.156-.148.152.152,0,0,0-.148.156l.025.962s0,.007,0,.01,0,.006,0,.009l.046,1.769a.152.152,0,0,1,.007.269l.007.269a.152.152,0,0,0,.152.148" transform="translate(-253.397 -454.08)" fill="#fff"/>
    <path id="Tracé_17401" data-name="Tracé 17401" d="M305.2,571.1h0a.152.152,0,0,0,.148-.156l-.007-.269a.152.152,0,0,1-.007-.269l-.046-1.77v-.01s0-.006,0-.01l-.025-.962a.156.156,0,0,0-.156-.148.152.152,0,0,0-.148.156l.025.962s0,.006,0,.009,0,.006,0,.01l.046,1.769a.152.152,0,0,1,.007.269l.007.269a.152.152,0,0,0,.152.148" transform="translate(-253.874 -472.43)" fill="#fff"/>
    <path id="Tracé_17402" data-name="Tracé 17402" d="M304.368,539.755h0a.152.152,0,0,0,.148-.156l-.007-.269a.152.152,0,0,1-.007-.269l-.009-.333-.3.006.009.335a.152.152,0,0,1,.007.269l.007.269a.152.152,0,0,0,.152.148" transform="translate(-253.232 -448.475)" fill="#fff"/>
    <path id="Tracé_17403" data-name="Tracé 17403" d="M187.924,522.42a.152.152,0,0,0-.2.074l-.406.872,0,.009,0,.009-.746,1.605a.152.152,0,0,1-.114.244l-.114.244a.152.152,0,0,0,.276.128l.114-.244a.152.152,0,0,1,.114-.244l.746-1.605,0-.009,0-.009.405-.872a.152.152,0,0,0-.074-.2" transform="translate(-155.107 -434.888)" fill="#fff"/>
    <path id="Tracé_17404" data-name="Tracé 17404" d="M371.828,581.1a.152.152,0,0,0,.108-.186l-.132-.5a.152.152,0,1,0-.294.077l.132.5a.152.152,0,0,0,.147.113.149.149,0,0,0,.039-.005" transform="translate(-309.268 -483.08)" fill="#fff"/>
    <path id="Tracé_17405" data-name="Tracé 17405" d="M384.994,523.345a.152.152,0,0,0,.086-.2l-.1-.251a.152.152,0,0,1-.1-.251l-.129-.332c-.094.037-.19.072-.284.109l.13.333a.152.152,0,0,1,.1.251l.1.251a.152.152,0,0,0,.2.086" transform="translate(-320.062 -434.813)" fill="#fff"/>
    <path id="Tracé_17406" data-name="Tracé 17406" d="M388.633,532.319a.152.152,0,0,0,.086-.2l-.1-.251a.152.152,0,0,1-.1-.251l-.643-1.649,0-.009,0-.009-.349-.9a.152.152,0,0,0-.283.111l.35.9,0,.009,0,.009.643,1.649a.152.152,0,0,1,.1.251l.1.251a.152.152,0,0,0,.2.086" transform="translate(-322.358 -440.345)" fill="#fff"/>
    <path id="Tracé_17407" data-name="Tracé 17407" d="M366.935,562.447a.152.152,0,0,0,.108-.186l-.068-.26a.152.152,0,0,1-.068-.261l-.449-1.712,0-.009,0-.009-.244-.93a.152.152,0,0,0-.294.077l.244.931,0,.009,0,.009.449,1.712a.152.152,0,0,1,.068.261l.068.26a.152.152,0,0,0,.147.113.146.146,0,0,0,.039-.005" transform="translate(-304.609 -465.323)" fill="#fff"/>
    <path id="Tracé_17408" data-name="Tracé 17408" d="M340.1,595.124a.152.152,0,0,0-.129.172l.017.123a.152.152,0,0,0,.15.131l.022,0a.152.152,0,0,0,.129-.172l-.017-.123a.151.151,0,0,0-.172-.129" transform="translate(-283.014 -495.423)" fill="#fff"/>
    <path id="Tracé_17409" data-name="Tracé 17409" d="M358.808,531.929a.152.152,0,0,0,.108-.186l-.068-.261a.152.152,0,0,1-.068-.261l-.087-.332-.294.079.087.33a.152.152,0,0,1,.068.261l.068.261a.152.152,0,0,0,.147.113.149.149,0,0,0,.039-.005" transform="translate(-298.357 -441.951)" fill="#fff"/>
    <path id="Tracé_17410" data-name="Tracé 17410" d="M361.34,541.119a.152.152,0,0,0,.108-.186l-.068-.26a.152.152,0,0,1-.068-.261l-.449-1.712,0-.009,0-.009-.244-.93a.152.152,0,0,0-.294.077l.244.931,0,.009,0,.009.449,1.712a.152.152,0,0,1,.068.261l.069.26a.152.152,0,0,0,.147.113.149.149,0,0,0,.039-.005" transform="translate(-299.952 -447.568)" fill="#fff"/>
    <path id="Tracé_17411" data-name="Tracé 17411" d="M333.215,546.719a.152.152,0,0,0,.129-.172l-.038-.267a.152.152,0,0,1-.038-.267l-.249-1.753,0-.01v-.009l-.135-.953a.15.15,0,0,0-.172-.129.152.152,0,0,0-.129.172l.136.953,0,.009a.083.083,0,0,0,0,.01l.249,1.752a.152.152,0,0,1,.038.267l.038.267a.152.152,0,0,0,.15.131l.022,0" transform="translate(-276.862 -452.165)" fill="#fff"/>
    <path id="Tracé_17412" data-name="Tracé 17412" d="M208.989,553.831a.151.151,0,0,0-.192.1l-.3.913,0,.009,0,.009-.557,1.68a.152.152,0,0,1-.085.256l-.085.256a.152.152,0,0,0,.1.192.149.149,0,0,0,.048.008.152.152,0,0,0,.144-.1l.085-.256a.152.152,0,0,1,.085-.256l.557-1.68,0-.009,0-.009.3-.913a.152.152,0,0,0-.1-.192" transform="translate(-172.949 -461.042)" fill="#fff"/>
    <path id="Tracé_17413" data-name="Tracé 17413" d="M215.924,532.9a.152.152,0,0,0-.192.1l-.3.913,0,.009,0,.009-.557,1.68a.152.152,0,0,1-.085.256l-.085.256a.152.152,0,0,0,.1.192.149.149,0,0,0,.048.008.152.152,0,0,0,.144-.1l.085-.256a.152.152,0,0,1,.085-.256l.557-1.68,0-.009,0-.009.3-.913a.152.152,0,0,0-.1-.192" transform="translate(-178.723 -443.617)" fill="#fff"/>
    <path id="Tracé_17414" data-name="Tracé 17414" d="M238.859,583.475a.152.152,0,0,0-.18.118l-.106.509a.152.152,0,1,0,.3.062l.106-.509a.152.152,0,0,0-.118-.18" transform="translate(-198.603 -485.724)" fill="#fff"/>
    <path id="Tracé_17415" data-name="Tracé 17415" d="M237.553,591.683a.152.152,0,0,0-.18.118l-.025.122a.152.152,0,0,0,.118.18.154.154,0,0,0,.031,0,.152.152,0,0,0,.149-.121l.025-.122a.152.152,0,0,0-.118-.18" transform="translate(-197.583 -492.557)" fill="#fff"/>
    <path id="Tracé_17416" data-name="Tracé 17416" d="M221.906,526.281l-.105.317a.152.152,0,0,1-.085.256l-.084.256a.151.151,0,0,0,.1.192.143.143,0,0,0,.048.008.152.152,0,0,0,.144-.1l.085-.256a.152.152,0,0,1,.085-.256l.106-.318c-.1-.032-.193-.062-.289-.095" transform="translate(-184.496 -438.114)" fill="#fff"/>
    <path id="Tracé_17417" data-name="Tracé 17417" d="M196.007,515.932l-.148.318a.152.152,0,0,1-.114.244l-.114.244a.152.152,0,1,0,.276.128l.114-.244a.152.152,0,0,1,.114-.244l.147-.316-.275-.129" transform="translate(-162.846 -429.499)" fill="#fff"/>
    <path id="Tracé_17418" data-name="Tracé 17418" d="M204.365,582.721a.152.152,0,0,0-.192.1l-.039.118a.152.152,0,0,0,.1.192.149.149,0,0,0,.048.008.152.152,0,0,0,.144-.1l.039-.118a.152.152,0,0,0-.1-.192" transform="translate(-169.929 -485.093)" fill="#fff"/>
    <path id="Tracé_17419" data-name="Tracé 17419" d="M206.383,574.763a.151.151,0,0,0-.192.1l-.164.493a.152.152,0,0,0,.1.192.148.148,0,0,0,.048.008.152.152,0,0,0,.144-.1l.163-.493a.152.152,0,0,0-.1-.192" transform="translate(-171.506 -478.468)" fill="#fff"/>
    <path id="Tracé_17420" data-name="Tracé 17420" d="M272.128,588.422a.152.152,0,0,0-.165.138l-.046.517a.152.152,0,0,0,.138.165h.014a.152.152,0,0,0,.151-.139l.046-.518a.152.152,0,0,0-.138-.165" transform="translate(-226.363 -489.845)" fill="#fff"/>
    <path id="Tracé_17421" data-name="Tracé 17421" d="M276.693,538.1l.03-.331-.3-.027-.03.331a.152.152,0,0,1-.024.268l-.024.268a.152.152,0,0,0,.138.165h.014a.152.152,0,0,0,.151-.139l.024-.268a.152.152,0,0,1,.024-.268" transform="translate(-230.047 -447.658)" fill="#fff"/>
    <path id="Tracé_17422" data-name="Tracé 17422" d="M272.867,566.462a.156.156,0,0,0-.165.138l-.086.958s0,.006,0,.01,0,.006,0,.009l-.158,1.763a.152.152,0,0,1-.024.268l-.024.268a.152.152,0,0,0,.138.165h.014a.152.152,0,0,0,.151-.139l.024-.268a.152.152,0,0,1,.024-.268l.158-1.763s0-.006,0-.01v-.01l.086-.958a.152.152,0,0,0-.138-.165" transform="translate(-226.772 -471.564)" fill="#fff"/>
    <path id="Tracé_17423" data-name="Tracé 17423" d="M240.541,561.883a.151.151,0,0,0-.18.118l-.2.942,0,.01,0,.009-.36,1.733a.152.152,0,0,1-.055.264l-.055.264a.152.152,0,0,0,.118.18.156.156,0,0,0,.031,0,.152.152,0,0,0,.149-.121l.055-.264a.152.152,0,0,1,.055-.264l.36-1.733s0-.006,0-.01l0-.009.2-.942a.152.152,0,0,0-.118-.18" transform="translate(-199.535 -467.749)" fill="#fff"/>
    <path id="Tracé_17424" data-name="Tracé 17424" d="M274.834,544.5a.154.154,0,0,0-.165.138l-.086.958s0,.006,0,.01v.009l-.158,1.763a.152.152,0,0,1-.024.268l-.024.268a.152.152,0,0,0,.138.165h.014a.152.152,0,0,0,.151-.139l.024-.268a.152.152,0,0,1,.024-.268l.158-1.763s0-.006,0-.01v-.01l.086-.958a.152.152,0,0,0-.138-.165" transform="translate(-228.409 -453.279)" fill="#fff"/>
    <path id="Tracé_17425" data-name="Tracé 17425" d="M245.022,540.292a.151.151,0,0,0-.18.118l-.2.942a.067.067,0,0,0,0,.01l0,.009-.36,1.733a.152.152,0,0,1-.055.264l-.055.264a.152.152,0,0,0,.3.062l.055-.264a.152.152,0,0,1,.055-.264l.36-1.733,0-.01,0-.009.2-.942a.152.152,0,0,0-.118-.18" transform="translate(-203.265 -449.776)" fill="#fff"/>
    <path id="Tracé_17426" data-name="Tracé 17426" d="M248.832,533.57l-.067.324a.152.152,0,0,1-.055.264l-.055.264a.152.152,0,0,0,.118.18.15.15,0,0,0,.031,0,.152.152,0,0,0,.149-.121l.055-.264a.152.152,0,0,1,.055-.264l.066-.32c-.1-.021-.2-.044-.3-.065" transform="translate(-206.996 -444.182)" fill="#fff"/>
    <path id="Tracé_17427" data-name="Tracé 17427" d="M271.555,596.773a.155.155,0,0,0-.165.138l-.011.124a.152.152,0,0,0,.138.165h.014a.152.152,0,0,0,.151-.139l.011-.124a.152.152,0,0,0-.138-.165" transform="translate(-225.915 -496.797)" fill="#fff"/>
    <path id="Tracé_17428" data-name="Tracé 17428" d="M373.93,588.519a.152.152,0,0,0-.294.077l.032.12a.152.152,0,0,0,.147.113.148.148,0,0,0,.039-.005.152.152,0,0,0,.108-.186Z" transform="translate(-311.038 -489.832)" fill="#fff"/>
    <path id="Tracé_17429" data-name="Tracé 17429" d="M535.218,432.134l-.236-.131a.152.152,0,0,1-.235-.131l-1.547-.86-.009,0-.008-.005-.841-.467a.152.152,0,0,0-.148.266l.841.467.008,0,.008.005,1.547.86a.152.152,0,0,1,.235.131l.236.131a.152.152,0,1,0,.148-.266" transform="translate(-442.972 -358.394)" fill="#fff"/>
    <path id="Tracé_17430" data-name="Tracé 17430" d="M559.054,445.378l-.109-.06a.152.152,0,1,0-.148.266l.109.06a.152.152,0,1,0,.148-.266" transform="translate(-465.118 -370.699)" fill="#fff"/>
    <path id="Tracé_17431" data-name="Tracé 17431" d="M552.071,441.5l-.454-.252a.152.152,0,0,0-.148.266l.454.252a.152.152,0,1,0,.148-.266" transform="translate(-459.018 -367.309)" fill="#fff"/>
    <path id="Tracé_17432" data-name="Tracé 17432" d="M548.9,404.253a.152.152,0,0,0-.082-.2l-.249-.1a.152.152,0,0,1-.249-.1l-1.636-.676-.009,0-.009,0-.889-.367a.152.152,0,0,0-.116.281l.889.367.009,0,.009,0,1.636.676a.152.152,0,0,1,.249.1l.249.1a.152.152,0,0,0,.2-.082" transform="translate(-454.169 -335.308)" fill="#fff"/>
    <path id="Tracé_17433" data-name="Tracé 17433" d="M534.175,469.916a.152.152,0,0,0-.035-.212l-.422-.3a.152.152,0,0,0-.177.247l.422.3a.152.152,0,0,0,.212-.035" transform="translate(-444.106 -390.739)" fill="#fff"/>
    <path id="Tracé_17434" data-name="Tracé 17434" d="M518.511,458.674a.152.152,0,0,0-.035-.212l-.219-.157a.152.152,0,0,1-.219-.157l-1.438-1.032-.008-.005-.008-.006-.782-.561a.152.152,0,1,0-.177.247l.781.561.008.005.008.006,1.438,1.032a.151.151,0,0,0,.157.012.153.153,0,0,0,.062.145l.219.157a.152.152,0,0,0,.212-.035" transform="translate(-429.191 -380.036)" fill="#fff"/>
    <path id="Tracé_17435" data-name="Tracé 17435" d="M566.719,411.615a.152.152,0,0,0-.082-.2l-.48-.2a.152.152,0,0,0-.116.281l.48.2a.152.152,0,0,0,.2-.082" transform="translate(-471.135 -342.318)" fill="#fff"/>
    <path id="Tracé_17436" data-name="Tracé 17436" d="M540.53,474.289a.152.152,0,0,0-.177.247l.1.072a.152.152,0,0,0,.177-.247Z" transform="translate(-449.776 -394.809)" fill="#fff"/>
    <path id="Tracé_17437" data-name="Tracé 17437" d="M577.751,380.048a.152.152,0,0,0-.1-.188l-.5-.142a.152.152,0,1,0-.083.293l.5.142a.154.154,0,0,0,.042.006.152.152,0,0,0,.146-.111" transform="translate(-480.298 -316.1)" fill="#fff"/>
    <path id="Tracé_17438" data-name="Tracé 17438" d="M592.837,348.53l-.123-.02a.152.152,0,0,0-.049.3l.123.02.024,0a.152.152,0,0,0,.024-.3" transform="translate(-493.272 -290.124)" fill="#fff"/>
    <path id="Tracé_17439" data-name="Tracé 17439" d="M574.021,414.468l-.115-.048a.152.152,0,1,0-.116.281l.115.048a.151.151,0,0,0,.058.012.152.152,0,0,0,.058-.293" transform="translate(-477.585 -344.984)" fill="#fff"/>
    <path id="Tracé_17440" data-name="Tracé 17440" d="M596.438,314.377l-.124-.006a.151.151,0,0,0-.159.145.152.152,0,0,0,.145.159l.124.006h.007a.152.152,0,0,0,.007-.3" transform="translate(-496.282 -261.705)" fill="#fff"/>
    <path id="Tracé_17441" data-name="Tracé 17441" d="M585.077,347.422a.152.152,0,0,0-.126-.175l-.513-.083a.152.152,0,0,0-.049.3l.513.084.025,0a.153.153,0,0,0,.15-.128" transform="translate(-486.382 -289.003)" fill="#fff"/>
    <path id="Tracé_17442" data-name="Tracé 17442" d="M559.1,374.6l-.259-.074a.152.152,0,0,1-.259-.074l-1.7-.483-.01,0-.009,0-.925-.263a.152.152,0,0,0-.083.293l.925.263.01,0,.009,0,1.7.483a.152.152,0,0,1,.259.074l.259.074a.149.149,0,0,0,.042.006.152.152,0,0,0,.042-.3" transform="translate(-462.638 -311.089)" fill="#fff"/>
    <path id="Tracé_17443" data-name="Tracé 17443" d="M518.9,500.949a.152.152,0,0,0-.2.225l.092.084a.152.152,0,0,0,.2-.225Z" transform="translate(-431.761 -416.993)" fill="#fff"/>
    <path id="Tracé_17444" data-name="Tracé 17444" d="M585.332,382.042l-.12-.034a.152.152,0,0,0-.083.292l.12.034a.148.148,0,0,0,.042.006.152.152,0,0,0,.042-.3" transform="translate(-487.012 -318.006)" fill="#fff"/>
    <path id="Tracé_17445" data-name="Tracé 17445" d="M403.736,570.629l-.189-.484a.152.152,0,0,0-.283.111l.189.484a.152.152,0,1,0,.283-.111" transform="translate(-335.698 -474.55)" fill="#fff"/>
    <path id="Tracé_17446" data-name="Tracé 17446" d="M451.826,523.589l-.153-.222a.15.15,0,0,0-.143-.065.153.153,0,0,0-.009-.157l-1-1.458-.006-.008-.005-.008-.545-.793a.152.152,0,0,0-.251.173l.545.793.006.008.005.008,1,1.458a.152.152,0,0,1,.153.222l.153.222a.152.152,0,1,0,.251-.172" transform="translate(-374.35 -433.562)" fill="#fff"/>
    <path id="Tracé_17447" data-name="Tracé 17447" d="M434.079,556.96a.152.152,0,0,0,.063-.206l-.243-.459a.152.152,0,0,0-.269.142l.243.459a.152.152,0,0,0,.135.081.15.15,0,0,0,.071-.018" transform="translate(-360.97 -463.033)" fill="#fff"/>
    <path id="Tracé_17448" data-name="Tracé 17448" d="M425.054,539.922a.152.152,0,0,0,.063-.206l-.126-.238a.153.153,0,0,0-.135-.081h0a.152.152,0,0,0,.009-.157l-.829-1.564-.005-.009,0-.008-.45-.85a.152.152,0,0,0-.269.142l.45.85,0,.009,0,.008.829,1.564a.152.152,0,0,0,.135.081h0a.152.152,0,0,0-.009.157l.126.238a.152.152,0,0,0,.206.063" transform="translate(-352.378 -446.812)" fill="#fff"/>
    <path id="Tracé_17449" data-name="Tracé 17449" d="M439.331,505.42l-.153-.222a.15.15,0,0,0-.143-.065.152.152,0,0,0-.009-.157l-1-1.458-.006-.008-.005-.008-.545-.793a.152.152,0,0,0-.251.173l.545.793.006.008.005.008,1,1.458a.15.15,0,0,0,.143.065.152.152,0,0,0,.009.157l.153.222a.152.152,0,1,0,.251-.172" transform="translate(-363.948 -418.436)" fill="#fff"/>
    <path id="Tracé_17450" data-name="Tracé 17450" d="M437.823,563.7a.152.152,0,0,0-.269.143l.058.11a.152.152,0,1,0,.269-.143Z" transform="translate(-364.237 -469.202)" fill="#fff"/>
    <path id="Tracé_17451" data-name="Tracé 17451" d="M406.594,577.955a.152.152,0,1,0-.283.11l.045.116a.152.152,0,0,0,.283-.11Z" transform="translate(-338.234 -481.051)" fill="#fff"/>
    <path id="Tracé_17452" data-name="Tracé 17452" d="M410.014,511.767a.152.152,0,0,0,.063-.206l-.126-.238a.152.152,0,0,0-.135-.081h0a.152.152,0,0,0,.009-.157l-.178-.336-.269.143.178.335a.152.152,0,0,0,.135.081h0a.152.152,0,0,0-.009.157l.126.238a.152.152,0,0,0,.206.063" transform="translate(-340.797 -425.185)" fill="#fff"/>
    <path id="Tracé_17453" data-name="Tracé 17453" d="M414.732,520.436a.152.152,0,0,0,.063-.206l-.126-.238a.152.152,0,0,0-.135-.081h0a.152.152,0,0,0,.009-.157l-.829-1.564,0-.008,0-.009-.45-.85a.152.152,0,1,0-.269.142l.45.85,0,.008,0,.009.829,1.564a.152.152,0,0,0,.135.081h0a.152.152,0,0,0-.009.157l.126.238a.152.152,0,0,0,.206.063" transform="translate(-343.785 -430.59)" fill="#fff"/>
    <path id="Tracé_17454" data-name="Tracé 17454" d="M494.354,524.944a.152.152,0,0,0-.229.2l.082.094a.152.152,0,0,0,.229-.2Z" transform="translate(-411.314 -436.958)" fill="#fff"/>
    <path id="Tracé_17455" data-name="Tracé 17455" d="M513.095,495.874a.152.152,0,0,0-.01-.215l-.384-.349a.152.152,0,0,0-.2.225l.384.349a.152.152,0,0,0,.215-.01" transform="translate(-426.597 -412.299)" fill="#fff"/>
    <path id="Tracé_17456" data-name="Tracé 17456" d="M498.828,482.905a.152.152,0,0,0-.01-.215l-.2-.181a.152.152,0,0,1-.2-.181l-1.31-1.191-.007-.006-.007-.007-.712-.647a.152.152,0,1,0-.2.225l.712.647.008.006.007.007,1.31,1.19a.153.153,0,0,0,.154.031.151.151,0,0,0,.045.151l.2.181a.152.152,0,0,0,.215-.01" transform="translate(-413.014 -399.951)" fill="#fff"/>
    <path id="Tracé_17457" data-name="Tracé 17457" d="M218.488,24.437a.152.152,0,0,0-.1.189l.076.258a.152.152,0,0,0,.116.107.152.152,0,0,0-.04.152l.5,1.7,0,.009,0,.009.271.923a.152.152,0,0,0,.292-.085l-.271-.923,0-.009,0-.009-.5-1.7a.152.152,0,0,0-.116-.106.152.152,0,0,0,.04-.152l-.076-.258a.152.152,0,0,0-.189-.1" transform="translate(-181.794 -20.338)" fill="#fff"/>
    <path id="Tracé_17458" data-name="Tracé 17458" d="M462.751,539.476l-.294-.428a.152.152,0,0,0-.251.173l.294.428a.152.152,0,1,0,.251-.172" transform="translate(-384.752 -448.688)" fill="#fff"/>
    <path id="Tracé_17459" data-name="Tracé 17459" d="M467.208,545.955a.152.152,0,0,0-.251.172l.07.1a.152.152,0,0,0,.251-.173Z" transform="translate(-388.707 -454.438)" fill="#fff"/>
    <path id="Tracé_17460" data-name="Tracé 17460" d="M461.986,488.1a.152.152,0,0,0,.014-.214l-.177-.2a.152.152,0,0,1-.177-.2l-1.164-1.333-.006-.007-.006-.008-.633-.725a.152.152,0,1,0-.229.2l.633.725.006.007.007.008,1.164,1.333a.152.152,0,0,1,.177.2l.177.2a.152.152,0,0,0,.215.015" transform="translate(-382.579 -404.046)" fill="#fff"/>
    <path id="Tracé_17461" data-name="Tracé 17461" d="M476.488,504.711a.152.152,0,0,0,.015-.214l-.177-.2a.152.152,0,0,1-.177-.2l-1.164-1.333-.006-.007-.007-.008-.633-.725a.152.152,0,0,0-.229.2l.633.725.006.007.007.008,1.164,1.333a.152.152,0,0,1,.177.2l.177.2a.152.152,0,0,0,.215.015" transform="translate(-394.652 -417.873)" fill="#fff"/>
    <path id="Tracé_17462" data-name="Tracé 17462" d="M489.169,519.235a.152.152,0,0,0,.014-.214l-.342-.391a.152.152,0,1,0-.229.2l.342.391a.152.152,0,0,0,.215.015" transform="translate(-406.725 -431.701)" fill="#fff"/>
    <path id="Tracé_17463" data-name="Tracé 17463" d="M178.627,542.415a.152.152,0,0,0-.2.074l-.406.872,0,.009,0,.009-.746,1.605a.152.152,0,0,1-.114.244l-.114.244a.152.152,0,1,0,.276.128l.114-.244a.152.152,0,0,1,.114-.244l.746-1.605,0-.009,0-.009.405-.872a.152.152,0,0,0-.074-.2" transform="translate(-147.368 -451.533)" fill="#fff"/>
    <path id="Tracé_17464" data-name="Tracé 17464" d="M81.114,112.76a.152.152,0,0,0,.016.214l.2.175a.152.152,0,0,1,.2.175l1.343,1.153.007.006.008.007.73.626a.152.152,0,1,0,.2-.231l-.73-.626-.007-.006-.008-.007-1.343-1.153a.152.152,0,0,1-.2-.175l-.2-.176a.152.152,0,0,0-.214.017" transform="translate(-67.494 -93.826)" fill="#fff"/>
    <path id="Tracé_17465" data-name="Tracé 17465" d="M72.468,105.542a.152.152,0,0,0,.2-.231l-.094-.081a.152.152,0,0,0-.2.231Z" transform="translate(-60.205 -87.57)" fill="#fff"/>
    <path id="Tracé_17466" data-name="Tracé 17466" d="M60.989,139.042a.152.152,0,0,0,.041.211l.223.151a.152.152,0,0,1,.223.151l1.467.991.009.006.007.005.8.538a.152.152,0,1,0,.17-.252l-.8-.538-.009-.006-.007,0-1.467-.991a.152.152,0,0,1-.223-.151L61.2,139a.152.152,0,0,0-.211.041" transform="translate(-50.75 -115.693)" fill="#fff"/>
    <path id="Tracé_17467" data-name="Tracé 17467" d="M76.93,109.17a.152.152,0,0,0,.016.214l.394.338a.152.152,0,1,0,.2-.231l-.394-.338a.152.152,0,0,0-.214.016" transform="translate(-64.011 -90.836)" fill="#fff"/>
    <path id="Tracé_17468" data-name="Tracé 17468" d="M9.336,226.548l.121.03a.152.152,0,1,0,.075-.295l-.121-.03a.152.152,0,1,0-.074.295" transform="translate(-7.676 -188.345)" fill="#fff"/>
    <path id="Tracé_17469" data-name="Tracé 17469" d="M100.386,84.922a.152.152,0,0,0-.008.215l.353.381a.152.152,0,0,0,.112.049.152.152,0,0,0,.112-.255l-.353-.381a.152.152,0,0,0-.215-.008" transform="translate(-83.528 -70.661)" fill="#fff"/>
    <path id="Tracé_17470" data-name="Tracé 17470" d="M96.371,80.8a.152.152,0,1,0,.223-.206l-.084-.091a.152.152,0,1,0-.223.206Z" transform="translate(-80.122 -66.978)" fill="#fff"/>
    <path id="Tracé_17471" data-name="Tracé 17471" d="M119.1,105.159a.152.152,0,0,0-.008.215l.183.2a.152.152,0,0,1,.183.2l1.2,1.3.007.007.006.007.653.706a.152.152,0,0,0,.223-.206l-.653-.706-.007-.007-.006-.007-1.2-1.3a.152.152,0,0,1-.183-.2l-.183-.2a.152.152,0,0,0-.215-.008" transform="translate(-99.107 -87.508)" fill="#fff"/>
    <path id="Tracé_17472" data-name="Tracé 17472" d="M19.737,193.745l.116.044a.154.154,0,0,0,.054.01.152.152,0,0,0,.054-.294l-.116-.044a.152.152,0,0,0-.108.284" transform="translate(-16.349 -161.042)" fill="#fff"/>
    <path id="Tracé_17473" data-name="Tracé 17473" d="M30.435,197.649a.152.152,0,0,0,.088.2l.252.1a.152.152,0,0,1,.252.1l1.655.629.01,0,.008,0,.9.342a.152.152,0,1,0,.108-.284l-.9-.342-.01,0-.008,0-1.655-.629a.152.152,0,0,1-.252-.1l-.252-.1a.152.152,0,0,0-.2.088" transform="translate(-25.328 -164.456)" fill="#fff"/>
    <path id="Tracé_17474" data-name="Tracé 17474" d="M51.57,132.865a.152.152,0,0,0,.17-.252l-.1-.07a.152.152,0,1,0-.17.252Z" transform="translate(-42.789 -110.317)" fill="#fff"/>
    <path id="Tracé_17475" data-name="Tracé 17475" d="M15.178,228.027l.5.127a.15.15,0,0,0,.037,0,.152.152,0,0,0,.037-.3l-.5-.128a.152.152,0,0,0-.075.295" transform="translate(-12.54 -189.577)" fill="#fff"/>
    <path id="Tracé_17476" data-name="Tracé 17476" d="M25.282,195.69a.152.152,0,0,0,.088.2l.486.184a.149.149,0,0,0,.054.01.152.152,0,0,0,.054-.294l-.485-.184a.152.152,0,0,0-.2.088" transform="translate(-21.038 -162.825)" fill="#fff"/>
    <path id="Tracé_17477" data-name="Tracé 17477" d="M44.02,167.464a.152.152,0,0,0,.065.205l.239.124a.152.152,0,0,1,.239.124l1.571.815.009,0,.008,0,.854.443a.152.152,0,1,0,.14-.27l-.854-.443-.009,0-.008,0-1.571-.815a.152.152,0,0,1-.239-.124l-.239-.124a.152.152,0,0,0-.205.065" transform="translate(-36.631 -139.341)" fill="#fff"/>
    <path id="Tracé_17478" data-name="Tracé 17478" d="M33.843,162.354l.11.057a.152.152,0,0,0,.14-.27l-.11-.057a.152.152,0,1,0-.14.27" transform="translate(-28.105 -134.916)" fill="#fff"/>
    <path id="Tracé_17479" data-name="Tracé 17479" d="M39.127,164.924a.152.152,0,0,0,.065.205l.461.239a.15.15,0,0,0,.07.017.152.152,0,0,0,.07-.287l-.461-.239a.152.152,0,0,0-.205.065" transform="translate(-32.558 -137.226)" fill="#fff"/>
    <path id="Tracé_17480" data-name="Tracé 17480" d="M104.129,88.97a.152.152,0,0,0-.008.215l.183.2a.152.152,0,0,1,.183.2l1.2,1.3.007.007.006.007.653.706a.152.152,0,0,0,.223-.206l-.653-.706-.007-.007-.006-.007-1.2-1.3a.152.152,0,0,1-.183-.2l-.183-.2a.152.152,0,0,0-.215-.008" transform="translate(-86.644 -74.031)" fill="#fff"/>
    <path id="Tracé_17481" data-name="Tracé 17481" d="M179.322,88.446a.152.152,0,0,0-.057.208l.133.234a.142.142,0,0,0,.137.077.152.152,0,0,0,0,.157l.067.118c.088-.051.177-.1.265-.149l-.067-.118a.143.143,0,0,0-.137-.077.152.152,0,0,0,0-.157l-.133-.234a.152.152,0,0,0-.207-.057" transform="translate(-149.216 -73.613)" fill="#fff"/>
    <path id="Tracé_17482" data-name="Tracé 17482" d="M187.29,35.5a.152.152,0,0,0-.081.2l.105.248a.152.152,0,0,1,.1.248l.69,1.63,0,.008,0,.01.375.886a.152.152,0,1,0,.28-.118l-.375-.886,0-.008,0-.01-.69-1.63a.152.152,0,0,1-.1-.248l-.105-.248a.152.152,0,0,0-.2-.081" transform="translate(-155.837 -29.544)" fill="#fff"/>
    <path id="Tracé_17483" data-name="Tracé 17483" d="M182.76,25.189a.152.152,0,0,0,.28-.118l-.049-.115a.152.152,0,0,0-.28.118Z" transform="translate(-152.092 -20.697)" fill="#fff"/>
    <path id="Tracé_17484" data-name="Tracé 17484" d="M195.886,55.808a.152.152,0,0,0-.081.2l.105.248a.152.152,0,0,1,.1.248l.69,1.63,0,.009,0,.008.375.886a.152.152,0,1,0,.28-.118l-.375-.886,0-.009,0-.009-.69-1.63a.152.152,0,0,1-.1-.248l-.105-.248a.152.152,0,0,0-.2-.081" transform="translate(-162.992 -46.449)" fill="#fff"/>
    <path id="Tracé_17485" data-name="Tracé 17485" d="M185.141,30.425a.152.152,0,0,0-.081.2l.2.478a.152.152,0,1,0,.28-.118l-.2-.478a.152.152,0,0,0-.2-.081" transform="translate(-154.048 -25.317)" fill="#fff"/>
    <path id="Tracé_17486" data-name="Tracé 17486" d="M122.961,58.979a.152.152,0,1,0,.246-.179l-.073-.1a.152.152,0,1,0-.246.179Z" transform="translate(-102.276 -48.814)" fill="#fff"/>
    <path id="Tracé_17487" data-name="Tracé 17487" d="M215.173,13.672a.152.152,0,0,0,.146.109.146.146,0,0,0,.043-.006.152.152,0,0,0,.1-.189l-.035-.119a.152.152,0,0,0-.292.086Z" transform="translate(-179.092 -11.12)" fill="#fff"/>
    <path id="Tracé_17488" data-name="Tracé 17488" d="M204.482,76.114a.152.152,0,0,0-.081.2l.105.248a.152.152,0,0,1,.105.248l.041.1.279-.12-.041-.1a.152.152,0,0,1-.105-.248l-.105-.248a.152.152,0,0,0-.2-.081" transform="translate(-170.148 -63.353)" fill="#fff"/>
    <path id="Tracé_17489" data-name="Tracé 17489" d="M216.834,19.335l.146.5a.152.152,0,0,0,.292-.085l-.146-.5a.152.152,0,1,0-.292.085" transform="translate(-180.503 -15.933)" fill="#fff"/>
    <path id="Tracé_17490" data-name="Tracé 17490" d="M129.728,67.983a.152.152,0,0,0-.033.213l.159.217a.152.152,0,0,1,.159.217l1.044,1.43.006.008.005.008.568.777a.152.152,0,1,0,.246-.179l-.568-.776-.006-.008-.006-.008-1.044-1.429a.154.154,0,0,0-.145-.061.153.153,0,0,0-.014-.157l-.159-.217a.152.152,0,0,0-.213-.033" transform="translate(-107.943 -56.57)" fill="#fff"/>
    <path id="Tracé_17491" data-name="Tracé 17491" d="M126.443,63.744l.306.419a.152.152,0,1,0,.245-.179l-.306-.419a.152.152,0,1,0-.245.179" transform="translate(-105.236 -52.864)" fill="#fff"/>
    <path id="Tracé_17492" data-name="Tracé 17492" d="M142.705,86l.159.217a.154.154,0,0,0,.145.061.152.152,0,0,0,.014.157l1.044,1.429.006.007.006.008.568.777a.152.152,0,1,0,.246-.179l-.568-.777-.006-.007-.006-.008-1.044-1.429a.152.152,0,0,1-.159-.217l-.159-.217a.152.152,0,1,0-.246.179" transform="translate(-118.774 -71.392)" fill="#fff"/>
    <path id="Tracé_17493" data-name="Tracé 17493" d="M168.447,69.264a.152.152,0,0,0-.057.207l.133.234a.145.145,0,0,0,.137.077.152.152,0,0,0,0,.157l.873,1.54.005.008,0,.008.474.837a.152.152,0,1,0,.265-.15l-.474-.837-.005-.009,0-.008-.873-1.54a.14.14,0,0,0-.137-.077.152.152,0,0,0,0-.157l-.133-.234a.152.152,0,0,0-.207-.057" transform="translate(-140.163 -57.644)" fill="#fff"/>
    <path id="Tracé_17494" data-name="Tracé 17494" d="M157.572,50.081a.152.152,0,0,0-.057.207l.133.234a.141.141,0,0,0,.137.077.152.152,0,0,0,0,.157l.873,1.54.005.008,0,.008.474.837A.152.152,0,1,0,159.4,53l-.474-.837-.005-.009,0-.008-.873-1.54a.144.144,0,0,0-.137-.077.152.152,0,0,0,0-.157l-.133-.234a.152.152,0,0,0-.207-.057" transform="translate(-131.11 -41.674)" fill="#fff"/>
    <path id="Tracé_17495" data-name="Tracé 17495" d="M151.885,40.358a.152.152,0,1,0,.265-.15l-.061-.108a.152.152,0,1,0-.265.15Z" transform="translate(-126.373 -33.318)" fill="#fff"/>
    <path id="Tracé_17496" data-name="Tracé 17496" d="M154.853,45.285a.152.152,0,0,0-.057.207l.256.452a.152.152,0,0,0,.265-.15l-.256-.452a.152.152,0,0,0-.207-.057" transform="translate(-128.847 -37.682)" fill="#fff"/>
    <path id="Tracé_17497" data-name="Tracé 17497" d="M56.42,135.957a.152.152,0,0,0,.041.211l.43.291a.15.15,0,0,0,.085.026.152.152,0,0,0,.085-.278l-.431-.291a.152.152,0,0,0-.211.041" transform="translate(-46.946 -113.124)" fill="#fff"/>
    <path id="Tracé_17498" data-name="Tracé 17498" d="M113.776,534.088l-.077.1a.152.152,0,1,0,.239.188l.077-.1a.152.152,0,1,0-.239-.188" transform="translate(-94.625 -444.565)" fill="#fff"/>
    <path id="Tracé_17499" data-name="Tracé 17499" d="M117.743,527.494l-.321.408a.152.152,0,0,0,.239.188l.321-.409a.152.152,0,0,0-.239-.188" transform="translate(-97.724 -439.076)" fill="#fff"/>
    <path id="Tracé_17500" data-name="Tracé 17500" d="M136.119,493.766l.007-.008.594-.756a.152.152,0,1,0-.239-.188l-.594.757-.005.007-.007.008-1.093,1.392a.152.152,0,0,1-.167.212l-.166.212a.152.152,0,1,0,.239.188l.166-.212a.152.152,0,0,0,.019-.156.15.15,0,0,0,.147-.056l1.093-1.392.005-.007" transform="translate(-111.898 -410.205)" fill="#fff"/>
    <path id="Tracé_17501" data-name="Tracé 17501" d="M122.859,510.153l-.594.757-.006.008-.006.007-1.093,1.392a.152.152,0,0,0-.019.156.15.15,0,0,0-.147.056l-.166.212a.152.152,0,1,0,.239.188l.167-.212a.152.152,0,0,0,.019-.156.15.15,0,0,0,.147-.056l1.093-1.392.006-.008.006-.007.594-.757a.152.152,0,0,0-.239-.188" transform="translate(-100.558 -424.64)" fill="#fff"/>
    <path id="Tracé_17502" data-name="Tracé 17502" d="M112.053,476.235a.151.151,0,0,0,.153-.038l1.246-1.257.007-.007.007-.007.677-.683a.152.152,0,1,0-.216-.214l-.677.683-.007.007-.007.007-1.246,1.257a.152.152,0,0,1-.19.191l-.19.191a.152.152,0,1,0,.216.214l.19-.191a.152.152,0,0,0,.037-.153" transform="translate(-92.876 -394.578)" fill="#fff"/>
    <path id="Tracé_17503" data-name="Tracé 17503" d="M98.4,489.688l-.677.683-.006.006-.007.007-1.246,1.257a.152.152,0,0,1-.19.191l-.19.191a.152.152,0,0,0,.216.214l.19-.191a.152.152,0,0,1,.19-.191l1.246-1.257.006-.007.007-.007.677-.683a.152.152,0,1,0-.216-.214" transform="translate(-79.952 -407.614)" fill="#fff"/>
    <path id="Tracé_17504" data-name="Tracé 17504" d="M88.264,511.3a.152.152,0,0,0-.215,0l-.088.088a.152.152,0,1,0,.216.214l.088-.088a.152.152,0,0,0,0-.215" transform="translate(-73.189 -425.605)" fill="#fff"/>
    <path id="Tracé_17505" data-name="Tracé 17505" d="M76.818,466.73a.152.152,0,0,0-.214-.024l-.751.6-.008.007-.007.006-1.383,1.105a.152.152,0,0,1-.21.168l-.21.168a.152.152,0,1,0,.19.238l.21-.168a.152.152,0,0,1,.21-.168l1.383-1.105.008-.007.007-.006.751-.6a.152.152,0,0,0,.024-.214" transform="translate(-61.584 -388.492)" fill="#fff"/>
    <path id="Tracé_17506" data-name="Tracé 17506" d="M92.57,505.347l-.366.369a.152.152,0,1,0,.216.214l.366-.369a.152.152,0,1,0-.216-.214" transform="translate(-76.721 -420.65)" fill="#fff"/>
    <path id="Tracé_17507" data-name="Tracé 17507" d="M171.262,503.654l.141-.23a.152.152,0,0,1,.141-.23l.192-.313-.257-.162-.194.316a.152.152,0,0,0,0,.157.15.15,0,0,0-.14.072l-.141.23a.152.152,0,1,0,.259.159" transform="translate(-142.336 -418.5)" fill="#fff"/>
    <path id="Tracé_17508" data-name="Tracé 17508" d="M142.17,553.72a.152.152,0,0,0-.209.05l-.065.106a.152.152,0,0,0,.259.159l.065-.106a.152.152,0,0,0-.05-.209" transform="translate(-118.106 -460.938)" fill="#fff"/>
    <path id="Tracé_17509" data-name="Tracé 17509" d="M175.135,562.409a.152.152,0,0,0-.2.074l-.219.471a.152.152,0,1,0,.276.128l.219-.471a.152.152,0,0,0-.074-.2" transform="translate(-145.433 -468.178)" fill="#fff"/>
    <path id="Tracé_17510" data-name="Tracé 17510" d="M172.428,570.013a.152.152,0,0,0-.2.074l-.052.113a.152.152,0,0,0,.276.128l.052-.113a.152.152,0,0,0-.074-.2" transform="translate(-143.318 -474.508)" fill="#fff"/>
    <path id="Tracé_17511" data-name="Tracé 17511" d="M145.529,546.575a.152.152,0,0,0-.209.05l-.272.443a.152.152,0,1,0,.259.159l.272-.443a.152.152,0,0,0-.05-.209" transform="translate(-120.73 -454.99)" fill="#fff"/>
    <path id="Tracé_17512" data-name="Tracé 17512" d="M161.4,508.989a.152.152,0,0,0-.209.05l-.5.82,0,.008-.005.008-.926,1.509a.152.152,0,0,1-.141.23l-.141.229a.152.152,0,1,0,.259.159l.141-.23a.152.152,0,0,0,0-.157.155.155,0,0,0,.14-.072l.926-1.509,0-.008.005-.008.5-.82a.152.152,0,0,0-.05-.209" transform="translate(-132.734 -423.701)" fill="#fff"/>
    <path id="Tracé_17513" data-name="Tracé 17513" d="M149.862,527.782a.152.152,0,0,0-.209.05l-.5.82,0,.008-.005.008-.926,1.509a.152.152,0,0,0,0,.157.154.154,0,0,0-.14.072l-.141.229a.152.152,0,1,0,.259.159l.141-.23a.152.152,0,0,0,0-.157.155.155,0,0,0,.14-.072l.926-1.509,0-.008.005-.008.5-.82a.152.152,0,0,0-.05-.209" transform="translate(-123.13 -439.346)" fill="#fff"/>
    <path id="Tracé_17514" data-name="Tracé 17514" d="M8.75,261.127l.515.069h.02a.152.152,0,0,0,.02-.3l-.515-.069a.152.152,0,1,0-.04.3" transform="translate(-7.174 -217.129)" fill="#fff"/>
    <path id="Tracé_17515" data-name="Tracé 17515" d="M6.827,362.585l-.122.026a.152.152,0,0,0,.032.3.162.162,0,0,0,.032,0l.122-.026a.152.152,0,1,0-.064-.3" transform="translate(-5.482 -301.839)" fill="#fff"/>
    <path id="Tracé_17516" data-name="Tracé 17516" d="M27.209,387.006a.152.152,0,0,0,.154.034l1.675-.571.009,0,.009,0,.911-.31a.152.152,0,1,0-.1-.288l-.911.31-.009,0-.009,0-1.675.571a.152.152,0,0,1-.255.087l-.255.087a.152.152,0,1,0,.1.288l.255-.087a.153.153,0,0,0,.1-.121" transform="translate(-22.187 -321.215)" fill="#fff"/>
    <path id="Tracé_17517" data-name="Tracé 17517" d="M16.144,395.779a.152.152,0,0,0-.193-.095l-.118.04a.152.152,0,0,0,.1.288l.118-.04a.152.152,0,0,0,.095-.193" transform="translate(-13.095 -329.389)" fill="#fff"/>
    <path id="Tracé_17518" data-name="Tracé 17518" d="M22.028,392.979l-.492.168a.152.152,0,1,0,.1.288l.492-.168a.152.152,0,0,0-.1-.288" transform="translate(-17.842 -327.137)" fill="#fff"/>
    <path id="Tracé_17519" data-name="Tracé 17519" d="M13.283,360.927a.152.152,0,0,0-.181-.116l-.507.11a.152.152,0,1,0,.064.3l.508-.11a.152.152,0,0,0,.116-.181" transform="translate(-10.384 -300.362)" fill="#fff"/>
    <path id="Tracé_17520" data-name="Tracé 17520" d="M2.778,260.332l.123.017h.02a.152.152,0,0,0,.02-.3l-.123-.017a.152.152,0,0,0-.04.3" transform="translate(-2.203 -216.467)" fill="#fff"/>
    <path id="Tracé_17521" data-name="Tracé 17521" d="M1.747,328.794a.152.152,0,0,0-.166-.136l-.124.012a.152.152,0,0,0,.015.3h.015l.124-.012a.152.152,0,0,0,.136-.166" transform="translate(-1.099 -273.598)" fill="#fff"/>
    <path id="Tracé_17522" data-name="Tracé 17522" d="M70.135,480.475l-.406.325a.152.152,0,1,0,.19.237l.406-.324a.152.152,0,0,0-.19-.238" transform="translate(-58 -399.955)" fill="#fff"/>
    <path id="Tracé_17523" data-name="Tracé 17523" d="M.276,294.648a.152.152,0,0,0,0-.3l-.124,0h0a.152.152,0,0,0,0,.3l.124,0h0" transform="translate(0 -245.032)" fill="#fff"/>
    <path id="Tracé_17524" data-name="Tracé 17524" d="M29.031,427.587a.152.152,0,0,0-.2-.072l-.112.054a.152.152,0,0,0,.066.289.149.149,0,0,0,.065-.015l.112-.053a.152.152,0,0,0,.072-.2" transform="translate(-23.833 -355.882)" fill="#fff"/>
    <path id="Tracé_17525" data-name="Tracé 17525" d="M57.094,442.288l.009,0,.816-.51a.152.152,0,1,0-.161-.258l-.816.51-.008.005-.009,0-1.5.939a.152.152,0,0,1-.229.143l-.228.143a.152.152,0,0,0,.161.258l.228-.143a.152.152,0,0,1,.228-.143l1.5-.939.008-.005" transform="translate(-45.699 -367.529)" fill="#fff"/>
    <path id="Tracé_17526" data-name="Tracé 17526" d="M65.333,485.733a.152.152,0,0,0-.214-.024l-.1.078a.152.152,0,1,0,.19.238l.1-.078a.152.152,0,0,0,.024-.214" transform="translate(-54.082 -404.312)" fill="#fff"/>
    <path id="Tracé_17527" data-name="Tracé 17527" d="M50.734,453.211l-.44.276a.152.152,0,0,0,.161.258l.44-.276a.152.152,0,1,0-.161-.258" transform="translate(-41.809 -377.266)" fill="#fff"/>
    <path id="Tracé_17528" data-name="Tracé 17528" d="M45.5,457.706a.152.152,0,0,0-.21-.048l-.105.066a.152.152,0,0,0,.161.258l.105-.066a.152.152,0,0,0,.048-.21" transform="translate(-37.556 -380.968)" fill="#fff"/>
    <path id="Tracé_17529" data-name="Tracé 17529" d="M34.83,423.988a.152.152,0,0,0-.2-.072l-.469.223a.152.152,0,0,0,.066.289.148.148,0,0,0,.065-.015l.469-.223a.152.152,0,0,0,.072-.2" transform="translate(-28.364 -352.886)" fill="#fff"/>
    <path id="Tracé_17530" data-name="Tracé 17530" d="M41.363,415.14l.008,0,.869-.413a.152.152,0,0,0-.131-.275l-.869.413-.009,0-.008,0-1.6.76a.152.152,0,0,1-.243.116l-.243.116a.152.152,0,1,0,.131.275l.243-.116a.152.152,0,0,1,.243-.116l1.6-.76.009,0" transform="translate(-32.509 -345.005)" fill="#fff"/>
    <path id="Tracé_17531" data-name="Tracé 17531" d="M334.406,232.427a1.1,1.1,0,0,0,.347-.8,1.068,1.068,0,0,0-.314-.763,1.2,1.2,0,0,0-1.642-.023,1.089,1.089,0,0,0,0,1.571,1.158,1.158,0,0,0,.812.326,1.136,1.136,0,0,0,.8-.315" transform="translate(-276.766 -191.91)" fill="#fff"/>
    <path id="Tracé_17532" data-name="Tracé 17532" d="M315.559,334.723a1.085,1.085,0,0,0-.337.791,1.074,1.074,0,0,0,.337.781,1.169,1.169,0,0,0,1.62,0,1.084,1.084,0,0,0,.011-1.56,1.2,1.2,0,0,0-1.631-.011" transform="translate(-262.414 -278.388)" fill="#fff"/>
    <path id="Tracé_17533" data-name="Tracé 17533" d="M215.365,159.283a52,52,0,0,0-11.978-17.589,53.891,53.891,0,0,0-18.136-11.615,3.554,3.554,0,0,0-1.29-.241,3.464,3.464,0,0,0-3.23,2.122,3.277,3.277,0,0,0,.343,3.12L175.7,147.657c-5.118,11.982-11.835,27.712-12.048,28.207a3.362,3.362,0,0,0,.792,3.6,3.624,3.624,0,0,0,3.708.768l6.277-2.522v2.3a3.347,3.347,0,0,0,6.69,0V175.02l3.694-1.484v.04a3.346,3.346,0,0,0,6.688,0v-2.728l14.664-5.888a.98.98,0,0,0,.551-1.29,1.03,1.03,0,0,0-1.331-.533L190.1,169.278a.988.988,0,0,0-.627.912v3.385a1.311,1.311,0,0,1-2.62,0v-1.516a.98.98,0,0,0-.452-.82,1.048,1.048,0,0,0-.955-.091l-5.727,2.3a.987.987,0,0,0-.628.911v5.646a1.312,1.312,0,0,1-2.623,0v-3.775a.977.977,0,0,0-.451-.821,1.046,1.046,0,0,0-.955-.09l-7.68,3.085a1.581,1.581,0,0,1-1.494-.34,1.465,1.465,0,0,1-.351-1.447c.211-.492,6.93-16.224,12.049-28.208l2.519-5.9a6.551,6.551,0,0,1,3.414,1.733,6.169,6.169,0,0,1,0,8.9,6.635,6.635,0,0,1-4.851,1.837,1.035,1.035,0,0,0-1.056.946,1,1,0,0,0,.975,1.025c.113,0,.225.006.34.006a8.686,8.686,0,0,0,6.032-2.421,8.1,8.1,0,0,0,0-11.687,8.581,8.581,0,0,0-4.06-2.193l1.833-4.294a46.966,46.966,0,0,1,15.743,10.1A45.309,45.309,0,0,1,208.9,161.786a3.463,3.463,0,0,0,3.23,2.121,3.6,3.6,0,0,0,1.29-.241,3.407,3.407,0,0,0,1.906-1.806,3.245,3.245,0,0,0,.034-2.579m-1.9,1.8a1.41,1.41,0,0,1-.792.75,1.476,1.476,0,0,1-1.876-.78,47.3,47.3,0,0,0-10.886-15.985,48.994,48.994,0,0,0-16.483-10.556,1.46,1.46,0,0,1-.485-.308,1.369,1.369,0,0,1-.32-1.512,1.439,1.439,0,0,1,1.342-.882,1.481,1.481,0,0,1,.535.1,51.861,51.861,0,0,1,17.453,11.178,50.046,50.046,0,0,1,11.528,16.927,1.346,1.346,0,0,1-.015,1.068" transform="translate(-136.048 -108.087)" fill="#fff"/>
    <path id="Tracé_17534" data-name="Tracé 17534" d="M227.884,327.393a3.76,3.76,0,0,0,0,5.429,4.045,4.045,0,0,0,5.6,0,3.763,3.763,0,0,0,0-5.429,4.049,4.049,0,0,0-5.6,0m4.162,4.035a2.017,2.017,0,0,1-2.724,0,1.831,1.831,0,0,1,0-2.64,1.974,1.974,0,0,1,2.725,0,1.829,1.829,0,0,1,0,2.64" transform="translate(-188.743 -271.609)" fill="#fff"/>
    <path id="Tracé_17535" data-name="Tracé 17535" d="M331.318,273.471a5.434,5.434,0,0,0,7.519,0,5.056,5.056,0,0,0,0-7.294,5.439,5.439,0,0,0-7.519,0,5.048,5.048,0,0,0,0,7.292m1.438-5.9a3.359,3.359,0,0,1,4.644,0,3.124,3.124,0,0,1,0,4.5,3.353,3.353,0,0,1-4.644,0,3.115,3.115,0,0,1,0-4.5" transform="translate(-274.517 -220.33)" fill="#fff"/>
    <path id="Tracé_17536" data-name="Tracé 17536" d="M288.535,299.106l-.355,3.283a.994.994,0,0,0,.9,1.084c.036,0,.072.005.108.005a1.006,1.006,0,0,0,1.01-.883l.356-3.282a1,1,0,0,0-.905-1.084,1.013,1.013,0,0,0-1.118.877" transform="translate(-239.897 -248.263)" fill="#fff"/>
    <path id="Tracé_17537" data-name="Tracé 17537" d="M201.536,378.148l-1.017.987a.964.964,0,0,0,0,1.394,1.039,1.039,0,0,0,1.438,0l1.017-.987a.964.964,0,0,0,0-1.395,1.039,1.039,0,0,0-1.438,0" transform="translate(-166.678 -314.557)" fill="#fff"/>
  </g>
</svg>
