<svg xmlns="http://www.w3.org/2000/svg" xmlns:xlink="http://www.w3.org/1999/xlink" width="81.161" height="82.962" viewBox="0 0 81.161 82.962">
  <defs>
    <clipPath id="clip-path">
      <rect id="Rectangle_2933" data-name="Rectangle 2933" width="81.161" height="82.962" transform="translate(0 0)" fill="none"/>
    </clipPath>
  </defs>
  <g id="Groupe_28227" data-name="Groupe 28227" transform="translate(0 0)">
    <g id="Groupe_28226" data-name="Groupe 28226" clip-path="url(#clip-path)">
      <path id="Tracé_17542" data-name="Tracé 17542" d="M63.948,20.59c-3.588-1.782-7.212-2.388-11.031-3.05a67.585,67.585,0,0,0,7.814-3.114,12.48,12.48,0,0,0,5.762-6.078,11.833,11.833,0,0,0,1.066-6.424A3.764,3.764,0,0,0,67.553.44.565.565,0,0,0,66.508.3,19.686,19.686,0,0,1,64.6,4.285,16.43,16.43,0,0,1,61.44,7.368c-2.536,1.966-5.68,2.448-8.7,2.906-4.406.668-9.407,1.369-12.646,4.82.078-3.8-1.324-8.164-3.747-10.7a9.126,9.126,0,0,0-5.458-2.365c-2.257-.31-5.277-.711-7.41.328a.28.28,0,0,0,.061.5,6.715,6.715,0,0,0,1.513.245c2.555,1.425,5.162,2.173,6.892,4.98,1.447,2.346,1.166,5.168.873,7.823h0c-4-3.9-9.041-7.028-14.546-7.171C13.1,8.592,7.94,11.631,4.863,15.918a.559.559,0,0,0-.066.125.451.451,0,0,0,.416.742l.01,0a.49.49,0,0,0,.513-.13c1.876-.51,3.417-1.348,5.485-1.345a25.8,25.8,0,0,1,6.322.557,14.328,14.328,0,0,1,5.305,2.746A37.687,37.687,0,0,0,7.77,27.8c-.712-.315-1.411-.623-2.091-.9-.331-.132-.481.378-.226.567.033.025.069.048.1.073a.293.293,0,0,0,.077.286c.37.355.754.709,1.145,1.061a28.081,28.081,0,0,0-2.517,3.384,28.4,28.4,0,0,0-2.271,25.4,35.963,35.963,0,0,0,9.727,13.308c.312.277.628.547.947.815a53.506,53.506,0,0,0,7.5,5.249c9.482,5.514,20.339,7.408,30.89,4.68,14.645-3.787,30.489-16.668,30.1-34A30.452,30.452,0,0,0,63.948,20.59M27.32,3.08c.4-.014.793-.017,1.181-.013.181,0,.366,0,.543.009a9.628,9.628,0,0,1,6.318,2.356c2.614,2.508,2.6,6.117,3.139,9.523.049.308.058,1.069.191,1.7a2.694,2.694,0,0,0,.132.451l-.159-.063a5.62,5.62,0,0,0-1.672-.377,4.567,4.567,0,0,0-3.009.685c.09-.454-.015-1,.032-1.416.079-.7.151-1.412.19-2.12a12.5,12.5,0,0,0-.381-4.038,9.32,9.32,0,0,0-.982-2.257A10.582,10.582,0,0,0,29,4.283c-.564-.339-1.165-.686-1.78-1.006-.115-.06-.226-.125-.343-.182.148-.006.294-.009.441-.015M40.261,18.789c.413,2.464-3.271,2.6-4.89,2.156-1.183-.329-1.5-1.088-.919-2.213.9-1.758,4.426-.607,5.809.057M7.7,14.674a20.677,20.677,0,0,1,2.9-2.217,14.594,14.594,0,0,1,8.309-2.35,14.43,14.43,0,0,1,6.4,1.866,33.072,33.072,0,0,1,5.54,3.909c.413.344.877.578,1.267.931a2.483,2.483,0,0,1,.332.359c.184.249.508.722.847.822a2.773,2.773,0,0,0,.841,4.129,6.75,6.75,0,0,0,5.732.045,3.476,3.476,0,0,0,1.8-1.973,1.8,1.8,0,0,0-.69-2,5.392,5.392,0,0,0-1.226-.709,2.834,2.834,0,0,0,.589-.533c.091-.1.179-.2.263-.275a18.973,18.973,0,0,1,1.607-1.329,16.115,16.115,0,0,1,3.5-2,16.957,16.957,0,0,1,2.206-.73c3.045-.782,6.194-.936,9.246-1.754A16.968,16.968,0,0,0,64.03,7.062a16.356,16.356,0,0,0,1.917-1.981,11.466,11.466,0,0,1-1.1,3.006,10.229,10.229,0,0,1-.8,1.282c-1.891,2.533-4.892,3.881-7.674,4.962-2.435.946-4.99,1.653-7.346,2.812-1.255.617-3.177,1.768-3.737,3.326a2.567,2.567,0,0,0-.143,1.177c.082.7,1.047.786,1.549.944,1.211.381,2.453.638,3.654,1.054a15.369,15.369,0,0,1,5.323,3.215,18.335,18.335,0,0,1,3.646,4.5,17.236,17.236,0,0,1,1.086,2.253c.047.117.1.232.143.351-.083-.077-.173-.148-.259-.223-.339-.294-.694-.577-1.044-.86a21.957,21.957,0,0,0-7.309-3.491c-2.783-.873-5.674-1.22-8.447-2.133-1.3-.428-2.573-.936-3.827-1.492a32.08,32.08,0,0,1-3.505-1.678c-.445-.266-.8-1.046-1.394-.688-.213.128-.412.274-.61.421a11.946,11.946,0,0,0-1.793,1.721l-.013.015a32.008,32.008,0,0,1-2.774,3.067A20.167,20.167,0,0,1,22,33.043c-4,1.183-8.1-.44-11.713-2.69.049-.067.1-.135.149-.2a15.333,15.333,0,0,0,8.451.983c2.3-.513,4.093-2.186,5.785-3.8.977-.934,4.12-3.4,2.952-5.1A20.6,20.6,0,0,0,24.6,18.425a17.989,17.989,0,0,0-3.955-2.7,16.321,16.321,0,0,0-2.26-.944,14.415,14.415,0,0,0-3.975-.625c-.853-.035-1.71-.036-2.56-.051a12.89,12.89,0,0,0-4.151.567m16.076,4.744q.444.414.852.859a13.677,13.677,0,0,1,2.027,2.829,13.493,13.493,0,0,1-8.626,6.937,11.932,11.932,0,0,1-6.8-.8,22.9,22.9,0,0,1,2.233-2.106A26.939,26.939,0,0,1,20.6,23.311a.372.372,0,0,0-.135-.688,5.782,5.782,0,0,0-1.761.216,18.681,18.681,0,0,0-5.959,3.452c-.323.247-.714.547-1.133.886-.152.123-.308.252-.465.385-.42.354-.852.741-1.263,1.154-.226-.094-.45-.188-.673-.284a42.342,42.342,0,0,1,14.569-9.014M76.921,59.592a29.842,29.842,0,0,1-3.669,5.934A44.38,44.38,0,0,1,55.907,78.289c-11.182,4.778-23.352,3.513-34-2.163C13.566,71.677,5.6,64.137,2.638,54.656a26.718,26.718,0,0,1-.854-3.563,26.06,26.06,0,0,1-.343-5.475c.006-.136.019-.268.027-.4a24.885,24.885,0,0,1,6.4-15.37c.208.176.42.348.633.519A5.784,5.784,0,0,0,7.949,31.4a3.239,3.239,0,0,0-.251,1.42c.022.323.4.346.592.2a6.226,6.226,0,0,0,1.393-1.745C12.952,33.67,16.7,35.394,20.7,34.825a17.834,17.834,0,0,0,8.143-3.5c2.444-1.835,4-4.635,6.378-6.479A6.315,6.315,0,0,0,37.4,26.356q.216.1.433.2c.458.2.919.378,1.353.558a46.765,46.765,0,0,0,7.9,2.725A45.116,45.116,0,0,1,54.6,32.086c2.089.863,5.589,2.522,6.732,4.76.087.486.157.977.2,1.477.058.643,1.048.907,1.152.165.609-4.372-2.305-8.989-5.081-11.932A17.263,17.263,0,0,0,46.7,21.414a7.45,7.45,0,0,1,1.88-1.988,9.261,9.261,0,0,1,1.086-.6,3.156,3.156,0,0,0,.975.2c.133.006.266.02.4.035a.823.823,0,0,0,.46.239l.137.026c4.671.86,8.9,1.6,13.148,4.025a28.7,28.7,0,0,1,9.537,9.086c5.225,7.834,6.618,18.46,2.6,27.161" fill="#fff"/>
      <path id="Tracé_17543" data-name="Tracé 17543" d="M74.661,53.5c-1,7-9.53,13.661-13,17-3.05,2.935-13.009,7.409-17,6" fill="none" stroke="#fff" stroke-width="1.075"/>
      <path id="Tracé_17544" data-name="Tracé 17544" d="M40.053,76.327q.142-.654.286-1.307" fill="none" stroke="#fff" stroke-width="2.835"/>
    </g>
  </g>
</svg>
